<svg xmlns:svg="http://www.w3.org/2000/svg" xmlns="http://www.w3.org/2000/svg" xmlns:xlink="http://www.w3.org/1999/xlink" xmlns:inkscape="http://www.inkscape.org/namespaces/inkscape" width="2243.23828125" height="1024.0" id="svgoverlay" version="1.1">
  <defs id="defs4">
    <clipPath id="edgeclip">
      <path id="clippath" d="M1157.937134 676.989502 L1155.223145 671.814575, 1153.329834 668.651245, 1151.919922 665.878174, 1150.930420 664.459961, 1150.715454 662.744385, 1150.247192 659.197021, 1148.706421 656.306519, 1147.881714 652.735168, 1144.681885 649.050964, 1141.390747 646.174133, 1138.936890 643.257568, 1137.095581 643.032227, 1135.135742 640.916077, 1134.977783 637.821411, 1132.667847 636.086060, 1133.065430 633.051758, 1130.443481 630.335571, 1129.440918 629.067078, 1128.792725 627.537903, 1129.673462 625.544189, 1129.429565 622.717041, 1128.217163 620.503235, 1128.989746 617.046753, 1128.139893 613.346436, 1127.567261 611.039124, 1126.471802 608.001099, 1125.215332 605.399292, 1125.321045 602.160767, 1126.373901 598.855591, 1126.620361 594.751404, 1127.545532 588.918945, 1127.428223 584.757690, 1126.159546 581.161133, 1124.949463 578.236572, 1125.082397 575.872925, 1123.636108 570.643433, 1123.189941 566.024536, 1122.464478 561.263367, 1120.980469 560.608887, 1120.908936 558.710571, 1120.518433 555.997314, 1119.086792 553.063721, 1117.900513 549.422729, 1116.588257 545.904175, 1115.446655 543.181091, 1115.283936 540.580566, 1113.280762 537.317627, 1111.424561 533.671875, 1109.962158 530.355713, 1108.322266 529.150513, 1108.333252 526.759399, 1105.211304 524.140625, 1103.872681 522.110229, 1102.695190 520.716675, 1103.707886 519.640137, 1101.705688 519.321777, 1102.270996 517.711304, 1104.612061 515.638977, 1104.005615 513.797363, 1104.859009 511.348938, 1104.026855 508.343506, 1104.576050 505.975769, 1104.618408 503.704651, 1106.413208 501.087402, 1106.859863 498.293518, 1108.154175 495.297058, 1108.570923 492.390747, 1108.904785 489.851562, 1109.887329 486.881470, 1110.003296 482.334045, 1110.103149 477.645508, 1109.231567 474.436707, 1109.149292 472.455750, 1109.444580 469.790039, 1108.477783 466.526733, 1108.083252 464.492065, 1107.641479 462.203979, 1106.448730 459.710144, 1106.750122 457.543884, 1106.386475 455.071960, 1106.163330 452.314331, 1106.953125 449.224976, 1106.246582 447.246948, 1107.572021 445.963318, 1108.578247 442.778198, 1109.650635 439.609741, 1110.538574 435.787354, 1111.040527 431.392578, 1111.572510 427.314331, 1112.445312 423.289124, 1113.153809 419.722046, 1113.871704 416.410889, 1114.380493 412.686157, 1115.197266 408.957275, 1114.957275 407.053467, 1116.396118 404.811157, 1118.297974 400.539429, 1120.241699 396.625427, 1122.956299 392.766541, 1125.812012 388.727051, 1127.739136 385.818542, 1128.799438 383.909851, 1129.681519 381.807495, 1130.642700 380.843018, 1131.860352 379.997070, 1134.176758 378.455688, 1136.740601 377.309082, 1140.934326 375.339539, 1144.603027 373.752258, 1148.302124 372.295654, 1150.376587 370.679077, 1152.238281 369.746399, 1153.800049 368.306458, 1154.233398 366.972656, 1155.571655 366.250488, 1157.802368 364.850769, 1159.671387 363.232971, 1161.160645 361.413086, 1159.929321 359.767334, 1161.125732 359.590698, 1161.793945 358.292542, 1163.630371 357.169556, 1164.020020 354.121399, 1164.007202 351.223755, 1163.997314 348.357910, 1165.998779 347.091492, 1167.831299 345.256287, 1168.680054 342.046143, 1169.342407 339.523621, 1169.724976 336.888733, 1170.071045 334.223389, 1170.583008 331.343384, 1170.960693 329.332275, 1171.916016 327.778870, 1173.475098 325.402161, 1173.545410 323.586609, 1174.708984 322.643433, 1176.236816 319.971191, 1177.101807 316.148132, 1177.539429 312.888672, 1177.603027 311.440186, 1179.219116 309.502319, 1180.466675 305.699402, 1180.965088 303.558411, 1182.671753 302.361511, 1185.827148 300.901794, 1187.923218 298.036438, 1188.433960 296.292725, 1189.957275 295.068481, 1190.568237 293.714233, 1191.755737 293.681091, 1192.719604 292.197876, 1194.611328 291.141174, 1196.441162 288.589600, 1198.075928 286.791138, 1200.517578 287.802368, 1202.880371 288.254517, 1204.048950 286.854309, 1206.288696 286.124084, 1208.247925 284.622681, 1209.211426 283.522766, 1210.915894 282.495056, 1213.210327 280.989441, 1214.608521 279.699280, 1216.175049 278.250427, 1218.788086 275.840576, 1221.915894 272.931580, 1225.630127 271.176758, 1228.896851 269.975281, 1230.776978 266.226868, 1232.754761 262.500854, 1234.561646 259.458618, 1237.162476 257.853149, 1240.041626 254.620117, 1242.209717 253.609009, 1245.232544 250.376343, 1248.022949 247.767761, 1249.578125 245.989258, 1252.286865 244.162659, 1255.270264 242.073364, 1256.719482 240.126099, 1259.220459 239.103882, 1260.169189 237.986816, 1261.441162 237.262878, 1263.109375 235.752625, 1264.745605 233.446228, 1264.192993 231.796387, 1264.700439 230.449036, 1264.864380 228.517029, 1267.558472 225.587402, 1265.679688 222.023743, 1265.076660 220.214722, 1266.531250 220.381287, 1267.742188 219.356567, 1267.290771 217.359192, 1269.533447 216.484436, 1269.935059 214.333923, 1269.974731 212.432617, 1268.622192 210.576599, 1268.182983 208.542786, 1267.486450 206.464355, 1267.140137 204.896912, 1268.615723 205.095703, 1271.067749 205.335754, 1273.109741 205.582458, 1274.847900 206.837769, 1277.207031 206.179321, 1279.409180 206.008972, 1281.630981 206.847046, 1282.889893 204.971924, 1284.257812 203.565369, 1286.316040 202.139526, 1287.246216 201.474915, 1288.174438 202.319214, 1288.948120 200.888916, 1290.696533 201.284058, 1292.042725 200.070618, 1294.177856 202.028137, 1296.933105 200.906616, 1299.153198 201.070007, 1301.575439 200.819336, 1304.173828 200.259521, 1304.509033 199.154907, 1306.108276 200.124207, 1308.940063 198.972107, 1310.841187 198.752380, 1312.656494 200.197571, 1313.785156 198.610413, 1314.879517 200.832214, 1317.016968 201.005371, 1318.140747 198.881287, 1320.091309 199.052612, 1321.804077 197.849487, 1324.251953 196.810608, 1325.864624 195.449341, 1327.692383 195.986877, 1329.702759 197.190369, 1331.891846 198.655884, 1334.238892 200.241821, 1336.401001 202.019897, 1338.793213 201.289062, 1341.138428 200.682556, 1343.328125 200.341919, 1345.472778 199.970337, 1347.751709 199.440552, 1349.092896 202.280579, 1351.594727 201.968323, 1353.312500 204.245789, 1354.916992 205.619263, 1356.791992 206.858032, 1359.536621 207.616821, 1361.891602 207.923889, 1364.374146 207.943054, 1366.588135 208.057739, 1368.737427 209.471985, 1372.192383 208.986511, 1374.925537 209.443359, 1377.191040 209.372620, 1378.211914 208.649719, 1378.829102 210.282043, 1381.419434 209.836365, 1383.794556 210.210876, 1385.628418 211.511414, 1387.176392 213.645813, 1389.847412 214.436218, 1392.113281 215.967041, 1394.483398 217.633850, 1397.060181 219.329468, 1399.590698 221.206177, 1402.713257 221.472900, 1405.363159 221.972351, 1407.344116 223.451965, 1409.401245 225.649109, 1412.226318 226.020752, 1414.299805 226.819214, 1415.518555 226.485596, 1416.055908 228.663757, 1419.447632 229.346130, 1421.161621 229.280518, 1422.432251 230.799744, 1425.114868 232.603577, 1426.867188 234.658081, 1428.459717 234.442200, 1428.650269 236.716248, 1431.027466 238.910461, 1433.578003 241.449219, 1437.499023 244.575256, 1439.868530 245.196838, 1441.329102 246.293030, 1445.092529 247.451904, 1449.463623 247.399902, 1455.044434 247.804932, 1461.585449 247.583313, 1467.966064 246.175598, 1471.010376 245.746460, 1472.407593 246.400696, 1477.381104 246.833679, 1479.786011 246.567749, 1481.013916 245.920898, 1481.936890 247.064819, 1482.677124 249.150146, 1483.319214 252.100220, 1485.000854 253.433838, 1485.380005 256.476624, 1487.871460 256.898804, 1489.468628 258.759399, 1492.571045 259.981628, 1495.544678 260.274963, 1500.408203 259.467773, 1504.391724 257.859741, 1507.759521 256.463074, 1509.285889 254.654053, 1514.271240 255.849487, 1524.363403 251.299255, 1531.590820 245.847351, 1535.219727 241.764648, 1537.459839 241.909973, 1536.598877 242.934082, 1534.221924 243.113525, 1534.924438 241.620117, 1537.505127 238.704468, 1540.070801 236.633301, 1542.191162 233.843872, 1543.769043 230.913513, 1546.221558 226.672424, 1546.857910 224.013367, 1547.227417 222.209595, 1548.832153 220.796570, 1550.429932 215.349121, 1551.974121 211.008240, 1551.957275 208.109497, 1552.680298 205.150391, 1551.770142 204.445435, 1553.218872 202.723755, 1555.584839 200.339783, 1558.330200 197.140625, 1559.066528 193.998657, 1560.751587 191.431152, 1561.493408 188.442261, 1563.181641 185.582520, 1565.047852 182.817139, 1566.921387 179.810486, 1569.179443 178.640503, 1570.831299 175.425293, 1570.728882 173.704956, 1572.015747 171.765076, 1572.821045 167.615295, 1574.355713 164.041504, 1573.587891 161.389465, 1574.547974 158.761536, 1573.441528 157.341125, 1574.705200 156.033203, 1574.856201 152.910034, 1575.477661 149.940552, 1574.051392 148.678772, 1575.159180 147.552429, 1576.898193 145.757812, 1576.537476 142.900452, 1576.606689 140.330261, 1575.393311 139.230713, 1576.531494 138.281311, 1578.262695 136.472290, 1580.292969 134.520630, 1580.294678 132.121155, 1579.113037 131.209106, 1580.207642 130.151855, 1582.045166 128.485596, 1581.955566 126.452637, 1583.364380 125.401123, 1584.891357 123.921753, 1584.862061 121.383911, 1585.990601 119.462891, 1584.507324 118.806030, 1585.641968 118.012512, 1586.255249 116.469543, 1587.205566 114.387146, 1588.298096 112.599487, 1587.037598 111.758240, 1586.201416 110.743042, 1587.922241 109.299683, 1586.782959 107.262939, 1585.481323 104.737305, 1585.262451 102.257507, 1587.512329 101.028809, 1586.859619 98.778259, 1588.750244 96.716370, 1588.900391 95.277649, 1590.483887 94.378296, 1591.744385 92.481018, 1590.656616 90.982544, 1589.991577 88.917114, 1588.424194 87.287476, 1588.581177 85.244019, 1587.728027 82.532715, 1589.845581 80.857544, 1592.062256 79.130493, 1594.750732 77.386047, 1595.646484 74.884277, 1597.420654 72.905701, 1596.524292 70.585388, 1596.142700 68.524597, 1595.755127 66.686584, 1596.544189 64.348511, 1598.644531 62.380066, 1599.398071 60.496521, 1600.004883 58.678711, 1602.980713 57.758850, 1603.369995 55.599670, 1602.647217 53.264648, 1603.589233 50.985168, 1602.689209 49.059753, 1604.489624 47.259644, 1603.379639 45.052612, 1602.782227 43.053589, 1603.831177 41.193176, 1602.228638 40.282043, 1603.403320 38.974426, 1604.997925 37.052917, 1603.159790 35.204529, 1604.182373 33.123291, 1606.846436 33.933655, 1608.980103 33.865845, 1610.433228 35.112610, 1611.795654 36.799438, 1614.183105 36.505310, 1616.452637 35.529053, 1618.877930 36.243896, 1620.488647 35.731689, 1622.245605 35.910645, 1624.443237 34.706055, 1626.597534 36.278015, 1628.655273 34.869324, 1631.126587 34.552368, 1633.361694 34.058228, 1635.099609 33.224060, 1635.521851 34.683533, 1636.766357 33.821655, 1638.198730 33.901184, 1640.647339 33.550903, 1641.195068 31.617432, 1642.878662 32.922424, 1645.063965 33.112732, 1647.368896 31.558105, 1648.305786 29.852295, 1651.133911 29.913940, 1654.937012 28.786133, 1658.618530 28.427063, 1662.207031 27.124756, 1664.312744 26.594177, 1666.922363 26.346191, 1668.023071 25.017151, 1668.952881 25.321899, 1670.747314 25.863220, 1674.396484 24.405945, 1678.844727 25.145874, 1680.894043 24.408875, 1682.057373 25.485718, 1684.778442 24.807617, 1687.256714 24.085083, 1689.979492 23.422607, 1692.448730 22.213135, 1695.349243 22.910583, 1698.470215 23.044678, 1701.228760 23.204895, 1702.355957 21.237122, 1704.269897 19.727722, 1705.205444 18.111145, 1706.069458 18.446472, 1705.985474 20.045044, 1707.294189 20.664001, 1705.978394 23.237305, 1706.133179 25.440796, 1707.303833 27.218140, 1708.699463 28.823364, 1709.984131 30.415466, 1711.662476 31.688538, 1713.392212 33.062866, 1714.802979 34.545471, 1716.313477 34.207214, 1716.205444 35.426697, 1716.163086 37.478943, 1716.127197 39.788879, 1716.367798 41.726135, 1717.765503 42.065430, 1719.106201 42.519104, 1720.512573 42.913574, 1720.429443 44.410400, 1721.766235 44.412476, 1722.924683 45.701477, 1726.537964 47.845947, 1728.403442 48.309326, 1728.907593 49.868958, 1729.402466 51.536316, 1729.420044 53.298340, 1731.115112 54.784180, 1732.062622 56.886536, 1733.598999 56.512390, 1733.958252 57.829102, 1734.448486 60.042419, 1735.103271 62.271240, 1735.820923 63.453857, 1736.450806 64.713135, 1737.940552 66.543579, 1739.876221 68.591553, 1742.875854 69.685547, 1743.295410 72.187439, 1743.737305 74.781799, 1745.864624 74.607788, 1746.717285 76.196472, 1747.690674 74.651733, 1749.178589 75.047302, 1750.502686 77.323975, 1753.458740 78.014221, 1754.816528 78.447388, 1755.332764 79.725342, 1758.227783 81.303101, 1759.549194 81.897766, 1760.288086 83.267639, 1763.091064 84.636902, 1764.321655 84.701050, 1765.163452 86.310242, 1768.414795 88.259094, 1771.240845 89.879333, 1774.204102 91.455811, 1777.259033 93.071838, 1780.337280 94.906067, 1782.875732 96.672302, 1785.747681 97.202087, 1786.852661 96.804993, 1787.496948 97.510315, 1788.231934 99.127991, 1791.038818 101.970886, 1792.409424 101.717773, 1792.818481 102.687134, 1793.507080 104.679016, 1796.243530 104.811584, 1798.778564 106.523499, 1802.576050 108.873230, 1805.882202 110.757874, 1809.480347 113.392456, 1813.865356 115.596375, 1818.071289 117.516663, 1820.484741 120.535828, 1823.930786 123.538086, 1828.697144 124.627441, 1834.012573 125.155701, 1840.254761 124.972290, 1848.730469 123.541443, 1857.964722 121.950500, 1864.882202 119.676086, 1868.786743 118.274170, 1872.932129 117.016052, 1877.300781 116.694580, 1881.890259 114.898315, 1887.034912 112.837158, 1892.619263 110.431335, 1897.991821 108.040039, 1903.800781 105.405029, 1909.919678 104.053650, 1912.933228 101.525940, 1915.617310 99.813110, 1919.052246 99.374817, 1923.051514 98.800781, 1925.158691 97.043640, 1927.319214 95.421509, 1930.780273 95.481201, 1934.736206 95.534851, 1938.931152 94.110901, 1943.329224 93.572144, 1945.962524 91.746155, 1949.861694 91.086487, 1951.038452 90.064819, 1952.619141 89.804077, 1956.162109 89.032043, 1958.076050 87.070435, 1960.833008 86.287476, 1963.438843 85.588745, 1965.778931 84.215393, 1969.288208 83.030884, 1971.633545 81.580750, 1974.249390 80.601685, 1978.133667 80.704529, 1981.221802 80.030518, 1984.622070 79.459839, 1987.615967 79.011597, 1990.335205 79.087463, 1991.730103 79.294189, 1993.052368 79.932190, 1994.861450 80.608154, 1995.962036 82.052124, 1998.577759 83.188171, 2000.717407 81.104736, 2003.188599 81.507080, 2004.875244 79.971497, 2006.266602 78.593140, 2006.026123 76.971802, 2007.604736 76.818970, 2007.716919 75.729065, 2009.646851 74.737976, 2013.139282 71.943176, 2016.972778 69.667053, 2020.531738 67.337952, 2023.812744 66.098206, 2026.879761 65.594971, 2029.726074 64.476624, 2032.696655 63.867065, 2035.717041 64.100037, 2039.340210 64.922852, 2041.196777 63.714294, 2043.691406 62.890625, 2044.604248 61.553467, 2046.101929 62.529541, 2048.605225 62.324829, 2050.503906 62.082397, 2052.683350 63.331604, 2054.365723 63.062256, 2056.289307 64.708496, 2057.383789 63.215576, 2060.039551 64.645752, 2061.551758 66.777100, 2063.199707 68.551880, 2064.661377 68.496338, 2064.824951 69.306580, 2065.431152 69.909241, 2066.224609 70.687744, 2067.191895 72.564331, 2070.387451 73.759827, 2073.870361 74.934692, 2076.710938 75.551453, 2077.740967 77.362915, 2078.237061 79.387512, 2079.207031 82.647949, 2080.260498 85.863159, 2081.462646 89.288879, 2083.250488 91.574402, 2085.873779 93.204895, 2088.318604 95.845825, 2092.387695 99.377197, 2095.180176 102.006348, 2098.058838 104.655151, 2101.769043 105.267700, 2104.293457 107.976379, 2107.252441 110.469849, 2110.140137 112.997620, 2111.470459 112.777405, 2112.298828 112.678467, 2112.843994 113.623230, 2113.376221 112.809387, 2113.456299 112.466431, 2113.971436 112.733643, 2114.102539 113.663025, 2115.361328 116.050293, 2118.929688 119.982483, 2121.526367 123.447021, 2123.770020 126.948059, 2125.132080 126.402710, 2125.846191 127.201660, 2125.447266 127.807007, 2125.196289 129.898071, 2126.298828 133.296021, 2124.959473 135.282349, 2125.659668 138.080200, 2128.072021 139.441895, 2129.058838 141.687988, 2130.056641 142.564087, 2130.487549 143.047791, 2129.547363 143.225952, 2128.718506 144.723816, 2130.281006 146.193848, 2132.225098 146.987671, 2132.686035 148.440735, 2136.132324 149.338440, 2139.097656 151.167236, 2140.217773 150.496338, 2141.475342 151.154785, 2144.803955 152.615295, 2145.703125 151.619568, 2148.299316 152.706970, 2152.103760 154.027527, 2156.088867 156.110535, 2161.288086 159.788757, 2166.524170 163.296631, 2169.882324 165.633362, 2173.624268 168.476624, 2176.395996 171.407166, 2177.731201 172.769287, 2178.364746 174.752441, 2181.389648 174.950073, 2183.468506 173.705261, 2186.004883 174.188110, 2189.150879 174.811401, 2191.237549 175.302979, 2193.066650 175.356567, 2195.203369 176.511108, 2197.805908 178.049194, 2199.047363 180.352661, 2200.352539 180.444702, 2200.636230 182.314514, 2202.832764 183.764893, 2204.675293 184.472961, 2205.908203 185.797791, 2207.124512 187.619690, 2209.513184 187.575439, 2211.834473 187.988708, 2214.350830 189.070068, 2216.202881 192.260498, 2218.717041 194.376160, 2220.658203 195.652771, 2222.106934 195.991455, 2221.201172 198.975098, 2223.244141 199.358398, 2225.611084 200.088196, 2228.675293 198.355713, 2230.255859 200.511658, 2232.166992 200.584778, 2233.573486 200.834106, 2231.871582 202.407104, 2230.322510 203.583435, 2228.207520 203.324829, 2228.849854 205.594910, 2226.507568 206.084778, 2227.711426 208.005981, 2226.717285 209.550476, 2225.657227 211.927429, 2224.539551 213.244446, 2224.577881 214.894775, 2224.533203 217.357788, 2222.578125 220.941528, 2222.054932 223.564514, 2221.919189 224.762695, 2221.299316 226.616882, 2219.894287 230.131409, 2217.809814 232.917114, 2218.250488 235.292725, 2218.577637 237.424438, 2219.165283 239.521545, 2219.832275 241.878418, 2220.440674 244.301636, 2221.099365 246.714172, 2219.256592 248.668518, 2216.934570 250.576355, 2218.646729 253.961243, 2219.729248 256.426147, 2219.002686 258.305298, 2217.197021 259.808594, 2218.953125 263.041748, 2218.198730 265.604614, 2217.466553 268.485535, 2217.052979 271.846252, 2217.711182 274.693298, 2217.365723 276.832458, 2217.522217 279.396545, 2217.513428 282.414124, 2217.686523 286.075134, 2217.830566 288.960938, 2218.238525 290.812500, 2217.210938 291.087524, 2217.325928 295.924133, 2217.450195 299.400940, 2217.033447 302.359619, 2218.596680 304.902405, 2218.413086 307.296936, 2219.524170 310.604370, 2219.672852 314.078613, 2220.078369 316.138611, 2220.258057 319.233521, 2220.178955 323.494507, 2219.466309 327.039368, 2220.692627 328.058167, 2220.598633 330.449219, 2220.674561 333.648071, 2221.353760 337.151367, 2222.202637 341.051208, 2221.574219 344.612915, 2222.841309 346.726257, 2222.452881 349.404236, 2222.118164 354.978455, 2221.101807 359.474792, 2220.858154 364.870300, 2221.214111 368.329773, 2220.950928 372.765198, 2220.782471 377.337158, 2220.110107 381.472717, 2220.952881 385.167725, 2220.405762 387.721497, 2220.987305 392.083069, 2220.546143 396.161865, 2219.931641 398.641602, 2218.727539 402.528564, 2218.682861 407.423462, 2218.691162 411.497986, 2218.855713 413.540161, 2218.332275 414.050537, 2218.260986 421.228394, 2218.733398 426.148499, 2219.253174 430.260010, 2219.707520 433.978333, 2219.451660 438.938965, 2219.374756 446.416626, 2220.379150 451.340088, 2221.540283 456.786072, 2222.644287 459.436584, 2222.433350 461.985413, 2223.679688 465.117554, 2224.899414 465.740173, 2225.088379 467.606079, 2226.090820 471.394592, 2226.709717 475.007751, 2226.929443 478.511597, 2228.813721 481.719299, 2230.988037 485.172729, 2231.578125 488.772217, 2233.745850 492.675171, 2235.800537 496.571777, 2237.406982 499.591431, 2238.309326 499.964539, 2238.565430 501.720642, 2238.925781 503.951538, 2239.107178 506.381897, 2240.205322 507.893372, 2240.250732 510.362244, 2240.812988 513.295288, 2241.485840 515.701172, 2241.406738 518.928589, 2242.547852 522.144897, 2242.320557 526.166016, 2241.860840 531.053467, 2242.547607 533.337891, 2242.009033 536.355774, 2241.378906 540.067871, 2241.556152 544.394226, 2242.683350 547.309204, 2242.426025 550.326599, 2241.685547 553.696289, 2241.872070 558.116516, 2242.125732 562.388062, 2241.823730 566.591553, 2242.106934 571.708130, 2243.050293 575.729370, 2243.238281 578.345459, 2242.092529 579.939819, 2242.723145 582.212830, 2243.132324 584.310791, 2241.488281 586.426147, 2240.376465 588.896912, 2239.962158 590.767212, 2240.244629 591.969482, 2239.052246 593.453369, 2238.392090 597.359192, 2237.950928 600.309082, 2237.518066 602.770752, 2237.412842 604.978943, 2237.247314 606.284180, 2237.210205 606.974121, 2235.710449 607.022583, 2234.939209 609.768555, 2234.897217 613.277466, 2235.946777 616.748779, 2236.076416 618.462708, 2236.100830 619.406494, 2236.391846 621.511475, 2235.044189 625.339111, 2235.447510 627.309814, 2235.456543 628.338013, 2235.640869 630.328613, 2235.417480 633.142578, 2234.969971 635.104492, 2235.643799 635.353394, 2234.937988 636.098267, 2233.331299 637.077393, 2233.717773 638.938477, 2233.074707 640.834900, 2232.850098 643.547302, 2232.892578 646.140320, 2231.083740 646.472595, 2228.400146 648.773560, 2226.003174 651.689453, 2223.113281 653.354492, 2220.562500 655.039917, 2218.326904 654.388428, 2216.009277 656.135498, 2213.177734 657.460754, 2210.101562 659.388794, 2208.281738 661.228882, 2207.638428 663.048096, 2206.429443 664.250977, 2206.093994 662.594849, 2204.048096 663.193237, 2202.369873 662.591797, 2199.663818 663.674622, 2197.677490 664.233521, 2195.171631 664.996948, 2192.254883 667.504395, 2190.048584 669.320435, 2187.892578 670.381226, 2186.056885 670.569214, 2185.098145 669.178833, 2181.944336 669.557495, 2178.742188 670.929688, 2176.435547 671.668396, 2174.252197 671.286621, 2171.111328 672.102295, 2168.977295 673.169250, 2166.591553 673.416199, 2162.599121 675.130859, 2161.509033 675.911621, 2160.378174 675.958496, 2157.578857 676.919067, 2154.501465 678.505249, 2153.674316 679.502380, 2152.660889 679.586548, 2153.288818 679.906799, 2152.132324 680.359985, 2150.902100 681.101807, 2149.379150 681.878662, 2149.101562 682.468018, 2147.599365 682.381836, 2144.746094 683.300171, 2142.179688 685.250854, 2140.901611 686.716553, 2139.935059 686.472107, 2137.499512 687.395203, 2137.035400 688.921387, 2136.182861 688.712708, 2134.415039 689.586548, 2131.665039 690.588013, 2129.396973 693.103271, 2126.373535 695.526489, 2123.231201 697.547791, 2119.538330 699.075073, 2116.084229 700.845459, 2112.402832 702.592957, 2109.840088 704.719849, 2106.215088 705.564575, 2102.270996 705.757202, 2099.743652 706.835815, 2097.502930 707.015747, 2096.156982 707.062866, 2093.642822 707.235229, 2091.122803 706.745239, 2086.687256 707.823486, 2083.992920 707.772400, 2078.877197 709.072144, 2074.998535 709.798584, 2069.222656 711.455811, 2061.801270 713.944702, 2055.636963 714.969788, 2048.519531 716.397949, 2042.959229 717.004761, 2038.499146 717.343018, 2035.407104 717.873047, 2031.358887 717.522766, 2026.977417 716.839966, 2021.412109 716.482056, 2018.166870 717.188721, 2012.378662 716.700195, 2005.752319 717.296265, 2000.485840 717.966675, 1998.059448 718.272583, 1995.892212 716.763062, 1989.844360 716.548096, 1988.235718 718.014526, 1986.270874 717.545166, 1981.705444 716.873047, 1978.351807 719.887329, 1974.078003 719.900208, 1969.176758 720.374634, 1965.459961 721.424255, 1961.892334 722.192993, 1959.477905 722.982422, 1957.098389 722.190674, 1952.715088 722.106812, 1947.730591 721.985840, 1943.411377 721.804810, 1940.266113 721.397583, 1937.552734 722.384155, 1935.128662 723.471375, 1933.081299 723.262390, 1930.700317 722.545227, 1928.547485 721.675659, 1927.047363 720.259888, 1923.905884 718.575867, 1919.813354 717.338867, 1914.169678 716.893555, 1908.149780 717.568237, 1906.469727 719.598572, 1906.733032 720.230286, 1905.294922 720.508911, 1901.115845 721.979370, 1896.141235 725.847656, 1893.210327 729.886658, 1890.300171 732.424133, 1888.942383 735.625610, 1887.294189 737.181702, 1885.285156 739.527771, 1883.704834 740.801636, 1882.746216 741.017029, 1881.268799 741.114624, 1878.564819 743.874023, 1877.547119 746.436523, 1876.220093 748.942871, 1874.309448 752.778625, 1872.820190 756.451538, 1871.107300 758.337036, 1869.570068 761.780518, 1868.598633 764.008911, 1867.446289 766.520386, 1866.898804 768.725830, 1864.784424 769.259949, 1863.032227 773.933350, 1860.919434 778.259766, 1860.184448 780.942749, 1859.296753 781.684143, 1857.608032 783.474854, 1855.582642 788.187256, 1856.287598 789.830139, 1854.914307 791.330078, 1853.135742 794.587402, 1852.449585 796.888916, 1850.432251 797.693359, 1849.042480 800.833618, 1846.961914 804.043579, 1847.652100 805.481506, 1845.987183 807.236816, 1844.001099 811.045898, 1842.770752 813.699402, 1841.854370 815.554382, 1840.158081 817.290344, 1838.056274 820.249695, 1835.097168 823.936096, 1831.910767 827.373535, 1828.625977 830.552917, 1824.868286 834.024780, 1820.859497 836.912231, 1817.542847 839.543030, 1813.611450 843.282043, 1810.039673 846.013306, 1807.794312 848.940247, 1804.592529 851.105042, 1800.265137 853.301147, 1798.255493 854.817444, 1796.066650 855.304077, 1792.420776 856.001831, 1787.109131 857.746460, 1783.300781 859.471069, 1778.459351 861.654785, 1773.516113 863.697388, 1769.754028 865.320801, 1765.250488 866.638000, 1761.216187 867.694519, 1757.580322 869.111938, 1754.268066 869.896240, 1751.058472 870.436401, 1746.839844 871.733032, 1741.304443 873.634277, 1734.993164 875.369873, 1729.606323 877.494019, 1722.751343 878.909058, 1719.047852 880.692932, 1717.412598 880.231934, 1712.211914 881.380615, 1704.171509 884.873230, 1697.488892 889.316650, 1698.636597 893.062988, 1696.579834 892.916870, 1695.366577 896.384766, 1694.324707 898.813721, 1692.150513 902.717407, 1691.043457 905.571289, 1689.460449 908.571899, 1687.018799 912.126221, 1684.763794 915.287476, 1684.225098 917.811768, 1683.099609 919.891235, 1682.223999 923.582153, 1682.266235 927.684204, 1681.890381 931.428223, 1681.466919 934.523254, 1682.223145 937.486938, 1682.811401 940.836304, 1684.114624 943.705078, 1684.717407 946.687378, 1685.069458 948.758179, 1682.914185 948.939758, 1681.119019 950.769470, 1680.642700 952.857239, 1681.160645 954.377136, 1679.448242 955.107971, 1677.777954 956.310852, 1676.289062 956.843506, 1676.835938 958.625061, 1676.147583 958.670410, 1674.940430 959.450684, 1672.642944 959.797729, 1671.050171 962.318298, 1669.358521 963.075745, 1667.974731 963.525757, 1667.559692 965.421265, 1665.287354 965.917114, 1663.043945 966.858643, 1660.803345 968.121948, 1658.236084 969.823242, 1655.812012 972.332275, 1653.792725 974.221741, 1652.318237 976.240967, 1649.012695 978.192932, 1647.130127 979.421265, 1645.314575 980.039429, 1643.430786 980.723694, 1641.596558 980.411255, 1638.774536 980.989319, 1636.939209 982.482605, 1635.698364 983.526733, 1634.489868 984.482605, 1633.439819 982.979919, 1631.016846 983.046570, 1630.059692 984.446411, 1627.804077 983.997437, 1627.397949 985.937988, 1625.388794 986.221436, 1625.964355 988.059570, 1625.275269 989.304443, 1624.701782 991.073853, 1622.362427 990.570374, 1621.302856 991.959839, 1621.727661 994.116272, 1622.548218 996.488159, 1622.064697 998.147461, 1622.232300 1000.105225, 1622.472778 1001.665100, 1621.380127 1002.613037, 1619.655884 1001.482361, 1618.863647 1001.960632, 1618.910645 1001.240845, 1618.722290 999.205566, 1616.705688 999.360229, 1614.721924 997.283325, 1613.191650 994.202148, 1610.700684 994.070984, 1609.458252 992.096252, 1607.961670 990.890015, 1606.218994 990.620544, 1604.382446 990.884155, 1603.263306 990.674927, 1602.855713 990.312195, 1602.177612 989.249573, 1599.924194 988.629761, 1597.883789 987.685669, 1596.316528 989.658997, 1595.930542 988.279968, 1595.162231 988.017334, 1594.299438 987.656311, 1593.713257 985.942810, 1592.428833 986.684692, 1592.319824 986.365479, 1592.121948 985.274170, 1591.879150 982.942749, 1589.390991 983.239319, 1588.510376 981.961731, 1587.427856 980.404907, 1585.107544 980.261719, 1582.933228 980.033569, 1582.976440 977.870178, 1579.978149 978.014099, 1577.974243 977.646179, 1577.424194 976.190796, 1575.015869 975.629395, 1572.770264 975.063049, 1569.254639 973.723633, 1565.842163 973.220886, 1563.853638 972.432068, 1561.523071 971.502380, 1560.293457 969.220886, 1556.299805 967.964966, 1552.305786 967.182190, 1551.075684 965.442200, 1547.124390 964.131714, 1542.516235 962.488281, 1537.542847 960.697449, 1533.485840 959.177246, 1529.168335 957.573242, 1524.674805 956.130676, 1521.699219 954.703369, 1519.847168 953.980225, 1517.855835 953.368652, 1516.223999 952.129211, 1512.759766 950.017639, 1506.249512 948.575684, 1500.529175 948.299377, 1495.206665 948.274170, 1490.512085 948.506531, 1485.647705 948.456482, 1481.389404 947.552246, 1476.911377 947.481812, 1472.554443 947.313721, 1468.738647 947.700012, 1465.380737 947.497192, 1461.384277 946.417053, 1455.210571 945.660645, 1450.415894 945.886292, 1446.568359 945.885437, 1442.546143 945.103088, 1441.013062 946.685852, 1438.500000 946.422913, 1435.113281 947.179688, 1431.062012 947.853577, 1427.278198 947.382629, 1422.752441 947.768616, 1420.642456 948.655701, 1418.418091 948.292053, 1413.935669 948.743408, 1411.215942 949.449524, 1407.553589 949.817200, 1403.151611 950.127319, 1399.800415 950.830383, 1395.338745 950.767273, 1391.827759 951.257324, 1389.836182 950.074158, 1384.705444 951.024963, 1382.286621 951.355286, 1380.328979 950.260986, 1375.600952 949.759766, 1372.485474 950.630981, 1369.313354 950.724426, 1366.233276 950.234680, 1363.058960 950.633972, 1361.422974 951.017151, 1360.334351 950.375366, 1356.147949 950.210571, 1352.679565 950.000000, 1349.907104 950.241211, 1346.025757 950.281921, 1341.519897 950.474915, 1338.847534 951.841309, 1334.907837 952.324890, 1331.205688 952.587646, 1327.303711 953.660767, 1322.549072 955.240723, 1317.247314 956.630554, 1315.624390 958.963928, 1314.096802 959.821167, 1311.920044 960.184204, 1307.943726 960.436951, 1305.793091 962.125977, 1304.182007 961.855896, 1302.506836 963.497620, 1301.729614 964.108765, 1301.320190 965.105713, 1299.087280 965.662292, 1297.252808 967.213928, 1295.437866 968.615173, 1292.888916 968.006409, 1290.564209 969.325439, 1289.941162 971.131409, 1288.198120 970.357605, 1285.921753 971.498169, 1283.984741 973.010254, 1282.593506 974.686340, 1279.862305 974.469849, 1278.688965 976.734619, 1280.334106 978.743896, 1280.569824 980.703979, 1279.829956 982.802246, 1279.980835 985.911743, 1279.536987 989.105957, 1278.780273 992.040344, 1278.520264 994.587830, 1277.888306 996.666626, 1277.092041 998.727600, 1278.630005 1000.813110, 1279.911743 1003.487915, 1281.180420 1005.729004, 1279.756226 1005.263611, 1278.889282 1004.874329, 1277.247070 1004.643555, 1275.607544 1002.913879, 1273.492188 1003.140259, 1271.786255 1001.833557, 1269.964844 1002.666138, 1268.892334 1003.495544, 1268.608765 1002.816223, 1267.441040 1002.421692, 1265.505005 1003.883545, 1263.485962 1005.206787, 1262.329712 1005.888794, 1262.187500 1004.677795, 1260.643799 1004.037964, 1259.402466 1004.865784, 1258.928223 1003.440918, 1256.885132 1002.561646, 1254.439087 1003.613892, 1251.766479 1002.362671, 1248.612183 1000.689331, 1246.102051 1002.294800, 1245.051392 1000.357727, 1242.778687 998.687378, 1241.089844 997.028503, 1239.544922 995.319458, 1238.014893 993.565063, 1236.075195 991.965271, 1233.914307 990.401306, 1231.610352 988.902344, 1229.262939 987.254272, 1225.216187 987.532227, 1220.567383 987.374329, 1216.591675 987.346985, 1213.006226 985.606873, 1207.501099 983.691895, 1202.986450 981.319580, 1198.658081 979.447144, 1195.385010 976.292358, 1191.453369 971.621277, 1190.570312 971.619141, 1189.932983 969.742004, 1189.662720 967.124023, 1187.111084 961.256226, 1185.077759 957.308899, 1184.152832 953.108887, 1182.926514 950.636780, 1181.440430 949.636292, 1181.356812 948.615234, 1181.982788 947.329163, 1182.139282 945.082947, 1179.874756 944.122864, 1180.087646 941.478088, 1177.430908 940.839478, 1177.474976 938.142212, 1176.970703 935.512634, 1175.888794 932.899414, 1174.057373 932.316040, 1173.018066 930.898682, 1172.033936 929.191528, 1170.554077 929.105469, 1169.387329 929.323120, 1168.525879 929.080322, 1167.832153 928.371948, 1167.377930 926.070068, 1166.796387 923.235474, 1165.487671 920.784912, 1163.485596 920.989990, 1162.122925 921.522217, 1162.050659 919.944336, 1160.631470 917.863159, 1159.227539 916.177246, 1158.231812 914.582642, 1157.475830 912.809937, 1156.510864 910.927734, 1155.802368 908.552002, 1153.927734 906.742920, 1152.791016 905.067200, 1153.868286 903.024780, 1151.489258 900.356445, 1150.246582 898.371765, 1149.577881 896.986633, 1150.608643 894.191711, 1148.537354 891.259216, 1147.343994 888.583801, 1145.925659 886.315857, 1144.522705 885.824402, 1145.105103 884.290466, 1144.772827 882.167603, 1146.612671 880.366516, 1146.926270 877.559937, 1146.083740 874.047913, 1144.306396 872.631287, 1143.858643 869.876404, 1141.627319 865.638123, 1141.455811 862.384216, 1139.769043 858.592346, 1137.977539 854.180786, 1136.434204 851.076233, 1135.338379 848.053955, 1134.489502 844.849731, 1135.369873 842.051819, 1134.296509 837.993469, 1133.294434 834.506714, 1132.074097 831.562683, 1132.430786 829.737427, 1132.344482 826.558472, 1131.698730 824.196350, 1133.007690 822.754883, 1132.084351 820.837036, 1132.254761 818.899902, 1131.365112 817.449707, 1131.518066 815.724487, 1133.248169 812.941040, 1134.494263 809.309937, 1135.729858 805.474487, 1137.011353 800.880127, 1137.642334 796.760071, 1139.134277 793.438904, 1139.874390 789.275391, 1140.469971 785.235535, 1139.943848 782.458313, 1139.679565 780.823486, 1140.179321 779.225647, 1140.363647 775.245544, 1139.855835 772.755737, 1140.577881 769.249634, 1140.938599 764.429077, 1139.989868 761.506104, 1140.309082 757.536377, 1139.744141 754.865723, 1139.925537 752.415527, 1139.982910 749.115234, 1139.135010 746.489624, 1138.889282 743.825195, 1138.269531 742.866943, 1138.937744 742.268494, 1140.612427 742.189270, 1140.319946 739.559570, 1141.635376 738.471313, 1141.900879 735.570740, 1141.784790 733.624634, 1143.238037 732.874573, 1145.633545 730.492920, 1147.551147 727.911194, 1148.651367 725.139404, 1150.227661 723.546753, 1152.616943 720.767212, 1153.978027 716.816895, 1154.629028 713.102417, 1156.027466 710.272583, 1157.338135 706.171753, 1158.618042 701.639160, 1159.857178 697.044312, 1161.133789 691.301270, 1162.559448 689.217590, 1160.767944 683.446777, 1157.937134 676.989502Z M1045.805664 645.539429 L1046.825806 646.239868, 1047.368164 648.884033, 1049.033569 654.522461, 1049.655029 659.169189, 1050.762695 663.862671, 1052.428345 669.253418, 1054.131836 671.710815, 1055.500610 674.278931, 1056.901489 676.033997, 1056.615845 678.076599, 1057.612427 681.426270, 1059.446655 684.175415, 1060.465332 687.605347, 1061.955933 688.652832, 1060.645630 690.598022, 1062.222656 693.475586, 1063.139160 695.616333, 1064.756958 697.684204, 1066.581421 701.332336, 1068.368652 703.696899, 1069.319824 705.908569, 1069.078003 708.132263, 1071.611328 711.017822, 1073.961548 712.162170, 1075.106934 714.557373, 1074.473999 716.256042, 1075.758545 718.146729, 1075.748779 720.727417, 1076.912720 722.049072, 1077.463013 723.705261, 1077.297607 725.845093, 1076.852417 728.699707, 1077.177002 731.945007, 1076.450684 734.765198, 1077.182373 735.969238, 1076.125854 737.328430, 1075.449829 739.864502, 1076.298706 742.264038, 1077.199097 744.637451, 1077.436035 747.311279, 1078.532715 750.304077, 1080.182251 754.397705, 1080.804565 758.817810, 1082.201050 764.402771, 1083.072266 768.793457, 1083.484253 773.376099, 1083.645020 776.945435, 1083.711548 780.051208, 1083.701050 783.480530, 1083.503052 787.196350, 1084.457520 790.712524, 1083.901001 797.513306, 1085.246704 803.602722, 1085.606934 806.737305, 1085.680786 808.507446, 1085.201050 810.930847, 1085.079224 814.087341, 1082.823853 816.521057, 1082.194946 819.310181, 1081.843628 820.972290, 1080.590454 821.288574, 1078.612549 823.891602, 1076.541626 826.456055, 1076.484375 829.196533, 1076.186279 832.046631, 1076.374390 834.169434, 1075.593628 835.513672, 1076.009277 836.047791, 1075.857788 836.863892, 1074.899536 837.771484, 1074.067871 839.025330, 1073.959595 840.793823, 1073.373291 841.586975, 1073.194336 842.744141, 1073.297974 845.129456, 1073.764893 847.073669, 1074.235718 848.484497, 1074.191406 850.429871, 1074.520020 853.101807, 1073.826782 854.619995, 1073.666138 857.922607, 1072.962646 861.387024, 1071.803833 865.223633, 1070.572266 869.572632, 1067.788574 872.037659, 1066.378418 876.980469, 1065.117798 879.762695, 1063.820923 882.008850, 1063.282593 884.886841, 1061.409424 887.122070, 1061.836670 889.326660, 1060.157837 891.717834, 1059.985474 895.275818, 1059.975952 897.252686, 1058.184082 898.070557, 1057.132446 900.788025, 1057.234131 901.918335, 1055.756592 903.002869, 1055.526245 904.758240, 1053.702026 905.825073, 1052.785278 908.645447, 1051.954102 910.475037, 1052.348633 911.736572, 1050.322388 912.140808, 1049.780396 914.474609, 1047.645386 916.285767, 1048.593262 917.695251, 1046.514648 918.613892, 1046.725708 921.068970, 1045.692383 923.519531, 1043.516357 927.476440, 1040.993408 932.292542, 1039.001343 935.308472, 1036.839233 937.124451, 1036.289185 938.298279, 1036.210083 938.738770, 1035.667969 938.252808, 1033.812866 938.867493, 1031.001465 939.534668, 1029.286377 941.805664, 1027.614502 944.314758, 1024.375122 944.303223, 1022.285278 946.520691, 1020.294922 948.870728, 1018.347595 950.885254, 1015.584839 950.478394, 1013.708618 952.445496, 1011.725464 954.348328, 1010.017395 956.194336, 1010.549316 957.917480, 1008.690369 958.507935, 1009.593445 960.115967, 1008.432068 961.033691, 1006.777588 962.621094, 1005.076721 964.436340, 1002.847046 966.312134, 1001.752930 968.524597, 999.236755 968.396912, 997.220825 971.090820, 995.505249 973.113586, 993.006836 972.823914, 991.207947 972.574463, 989.115845 972.794373, 986.660950 972.312134, 984.974731 973.917603, 982.958130 973.291565, 981.659729 974.156616, 980.082520 974.548340, 979.801636 976.480774, 978.724365 975.727356, 977.301208 975.862244, 975.768005 974.717346, 973.578003 973.439575, 971.386902 972.955505, 972.011902 971.151672, 972.910095 968.966675, 971.266296 967.138428, 972.376221 964.855957, 970.366638 962.917969, 968.477966 962.042664, 969.680115 961.128418, 970.651001 959.406738, 969.230469 957.723999, 967.763184 955.477295, 966.388245 954.462097, 965.575195 953.878967, 965.076599 952.497925, 965.452942 950.927673, 965.190979 949.224670, 964.169617 947.179565, 963.095947 945.121338, 962.070679 942.888000, 960.907593 940.187378, 958.613708 939.472778, 957.753601 937.420593, 957.272583 934.526306, 956.045410 932.659058, 954.659302 931.161865, 953.307739 932.065491, 952.258850 931.062744, 950.612976 930.312195, 948.630981 930.012695, 945.351868 929.959351, 941.179382 931.018677, 936.456665 931.232971, 933.415771 931.950439, 931.901367 931.123413, 927.451416 931.346985, 924.442566 931.422668, 921.715149 931.217651, 918.091980 930.725708, 916.518860 931.009094, 914.848389 929.971436, 912.448181 930.574890, 909.793701 929.631165, 906.536316 929.518372, 904.194397 929.492310, 901.019348 929.309998, 898.726685 929.404480, 895.568848 929.157410, 892.691956 930.091187, 889.348206 929.437012, 885.832336 929.112732, 884.324097 930.200684, 882.169800 930.573608, 880.172180 931.080444, 878.179810 931.105347, 876.462646 932.242859, 874.822510 932.068481, 873.776672 930.421509, 871.037903 930.368164, 868.588684 929.524353, 864.404602 929.399048, 860.247498 928.845764, 855.053894 928.238831, 851.267639 927.966003, 847.937439 926.911682, 843.834900 927.847595, 840.731445 928.538330, 836.979370 928.111267, 833.642700 928.993103, 830.501465 928.426453, 826.385681 928.441284, 823.049622 929.172852, 820.600708 929.346924, 819.213867 928.687134, 817.674255 927.671997, 814.676147 927.579163, 810.832092 927.717712, 807.390503 928.177185, 803.030029 928.848877, 797.719299 929.905518, 791.377380 931.593933, 788.380615 933.643677, 782.892090 934.672119, 780.540527 936.112793, 777.235413 936.945007, 774.025024 937.496094, 770.498535 938.385254, 767.819885 940.216736, 763.074280 941.807739, 758.287476 943.446411, 753.591675 945.103271, 750.743896 947.202576, 747.433472 947.989746, 743.806946 949.808655, 739.487122 950.810669, 734.309448 952.307983, 729.138245 954.487915, 727.222595 956.028381, 724.383667 956.762939, 719.079773 959.579285, 714.006042 962.041931, 707.582581 966.312927, 702.548401 969.452576, 698.366333 971.616882, 695.092285 973.267578, 690.308228 975.058167, 688.852722 977.366028, 688.475403 978.393677, 688.358093 978.768982, 688.073303 978.210999, 688.852722 977.366028, 684.623291 979.386902, 681.475708 981.425354, 677.478577 983.524536, 674.748108 985.555908, 672.029785 986.557129, 669.563110 987.939636, 667.674072 988.950439, 665.777771 990.336426, 663.517090 991.890808, 660.955261 992.638428, 657.614136 993.271667, 656.558777 995.666687, 656.417236 998.234131, 655.693176 999.956970, 653.427917 1000.359314, 650.284485 1000.672302, 646.643677 1000.320007, 644.618469 1001.464355, 642.113831 1001.762817, 638.995483 1001.638184, 639.005615 1003.511292, 636.338501 1003.835083, 633.603455 1004.283997, 630.512207 1004.885620, 632.141907 1006.358765, 630.373901 1007.365662, 632.385803 1008.581238, 631.326050 1008.913330, 632.060486 1010.175903, 630.954346 1011.264587, 630.433533 1013.004211, 630.302429 1014.801941, 629.846558 1016.310181, 628.401611 1016.841064, 625.835815 1015.212585, 622.919312 1014.220276, 625.078430 1016.386108, 623.407349 1015.774536, 622.315491 1015.465698, 621.373474 1015.516602, 619.072388 1015.399353, 617.821838 1018.179321, 618.227783 1019.705505, 617.973450 1021.248474, 616.108948 1021.838074, 615.202698 1024.000000, 614.336121 1023.567322, 614.405457 1021.967285, 614.894897 1020.032227, 613.079529 1020.050171, 611.731323 1020.048035, 610.952515 1019.918640, 611.515381 1019.579285, 612.842529 1018.250244, 612.916321 1015.280823, 612.704651 1012.532166, 610.404724 1011.964355, 608.231079 1011.434509, 606.260315 1010.871460, 604.205200 1010.230774, 602.062988 1009.307434, 599.713074 1008.721436, 597.597473 1008.039978, 597.466309 1005.568420, 595.651062 1004.739929, 594.372314 1003.509888, 593.796509 1001.343628, 592.000732 1001.123840, 590.311340 1000.913818, 588.107727 1001.982910, 585.867004 1003.208069, 584.287720 1002.155518, 582.106812 1001.344788, 579.685730 1000.178711, 577.344849 998.309937, 575.154541 995.891968, 573.074463 995.370972, 571.591919 994.680542, 569.452576 994.205444, 567.099670 994.125122, 567.008606 992.337158, 565.363464 992.452087, 565.736938 990.583923, 563.810608 990.736511, 564.002075 989.987366, 564.131409 988.182617, 563.053711 985.137085, 561.393311 982.801514, 559.837585 981.056030, 560.504639 979.757080, 561.614136 978.036499, 559.180725 976.911133, 558.678223 975.992554, 558.501587 975.164673, 557.224182 973.885498, 555.710815 972.871338, 555.696899 971.169373, 554.653442 968.407410, 553.266296 967.111938, 552.877441 965.227356, 549.533813 962.406616, 548.208496 960.616150, 547.666016 959.444641, 548.349121 957.577393, 548.138428 956.048218, 547.607422 954.578796, 549.335693 952.340942, 548.577393 950.531799, 547.589050 949.175232, 548.450989 947.208984, 546.601990 944.984070, 545.749634 943.578918, 545.314026 942.563599, 545.765625 941.112976, 546.480774 939.479431, 547.463684 937.607056, 548.430603 935.054321, 547.605835 932.263916, 546.719055 930.380432, 548.028931 929.600342, 546.703674 928.129028, 546.098145 926.774292, 546.286194 924.356201, 544.750244 921.948608, 544.798218 920.608826, 541.485291 916.328430, 537.368530 912.448853, 534.776001 910.362854, 531.690979 907.087097, 529.374207 905.485840, 526.799927 903.051392, 523.880798 900.487366, 519.914185 897.164734, 516.616577 895.133911, 514.606750 895.195312, 512.874939 893.136292, 508.721436 891.638062, 505.839111 890.075928, 501.941223 888.876465, 497.014771 887.611206, 492.487457 888.126831, 488.677734 888.133606, 484.080963 887.301270, 479.372009 885.718445, 476.034607 883.877075, 471.902527 882.830872, 468.595245 880.823303, 466.868958 880.520691, 465.793274 878.979248, 462.239227 876.343018, 457.776184 874.744690, 454.130219 874.369812, 449.892487 873.371704, 445.735870 871.907715, 443.215210 869.907715, 442.073883 868.158508, 440.560822 866.840393, 438.050903 865.225342, 435.057251 863.541687, 433.172974 861.993530, 431.029510 859.957581, 427.041016 856.560242, 423.261902 854.597778, 420.133087 853.612305, 418.445892 851.698975, 415.488342 851.321594, 413.310608 850.542603, 412.288696 850.489624, 411.844910 849.371704, 411.205292 847.729370, 410.755402 845.473267, 409.073914 842.838379, 408.396027 839.594055, 406.616638 835.732239, 404.481659 831.696899, 402.782928 828.086975, 401.367737 824.144653, 399.620941 819.785156, 397.779877 816.221924, 396.306610 812.539856, 395.097534 808.943176, 393.450989 806.250671, 391.590485 802.958313, 389.895630 799.666870, 388.108551 796.500305, 386.853882 793.218018, 385.771973 790.660461, 385.931000 787.984253, 385.244873 786.036743, 385.177094 783.407227, 383.234680 780.841370, 382.292755 777.045898, 380.251251 774.557983, 379.277954 770.333862, 377.206512 768.074402, 375.937012 763.520447, 374.466064 762.133057, 375.229675 760.468140, 374.999359 757.776489, 374.048004 757.558472, 374.306885 755.760986, 374.903351 752.235107, 373.938538 752.410950, 373.334351 751.955078, 372.935699 749.084229, 372.090759 746.151123, 370.549530 745.200073, 369.675751 745.811279, 369.502289 744.995789, 368.769562 742.807312, 367.381592 743.085083, 366.935791 741.560852, 365.208862 741.431763, 364.968414 739.794189, 365.120392 737.853027, 365.177795 735.089966, 361.001434 729.808716, 357.179413 725.564758, 354.600342 724.158325, 354.338715 722.387085, 351.889954 720.978027, 349.240570 720.116455, 346.202240 719.162354, 346.005524 719.573853, 344.769836 718.987427, 343.679901 717.935547, 339.232605 717.191650, 334.955048 716.917480, 333.384155 717.765137, 331.409668 717.101440, 327.783478 717.718140, 326.119659 720.027771, 322.420502 721.495850, 321.577728 722.754700, 319.407227 722.147705, 315.366455 722.180542, 310.553925 722.617798, 305.032349 720.882019, 298.594391 718.700928, 293.295319 717.423035, 285.471985 717.165405, 282.634277 717.468811, 278.688538 716.402771, 273.482819 716.358276, 268.092163 716.315491, 262.517731 716.139832, 256.912262 716.192749, 252.500427 716.884460, 248.743454 715.631226, 245.325867 715.962036, 242.415741 714.562622, 236.113190 714.355225, 232.828690 715.649109, 228.988449 716.153076, 228.492371 716.992798, 226.532318 717.109253, 222.954041 717.579773, 218.007050 717.373413, 212.875626 716.369995, 208.147995 715.018860, 202.873413 713.426392, 200.218430 713.233643, 197.707870 712.931030, 193.574173 712.273376, 189.477631 711.727112, 184.838318 711.737244, 179.825897 711.557556, 175.035263 711.339233, 169.799393 710.658752, 165.622681 709.198914, 161.034241 708.835449, 155.883987 708.241577, 150.358322 707.414917, 145.510544 707.501709, 142.445190 707.525391, 139.801620 708.627319, 137.635605 707.886963, 133.778625 706.691528, 130.993866 706.544128, 127.598740 704.703003, 123.804550 702.622742, 120.244064 700.919617, 117.229584 699.292969, 116.197861 697.066772, 113.541939 695.240112, 110.985023 693.147583, 107.412712 692.890320, 104.064888 692.442627, 101.659309 691.668335, 99.091408 690.177795, 95.610466 687.827271, 92.681908 685.310669, 89.855072 684.835388, 87.971535 683.289429, 85.580399 681.964172, 83.268280 680.866821, 81.539742 678.798462, 79.544739 678.457886, 77.967842 675.406250, 75.161217 673.929810, 72.991638 672.158752, 70.153297 672.444336, 67.700104 672.652832, 65.664490 672.563538, 63.128719 672.332153, 60.697918 670.721130, 58.263767 671.392151, 56.712620 672.102173, 54.471149 671.198059, 51.251743 669.756836, 48.359818 667.999634, 46.295738 667.730225, 43.665565 666.960449, 40.105286 665.549316, 36.815762 664.368225, 33.323723 662.632568, 30.746191 662.034912, 28.843706 660.639282, 26.542053 660.112610, 23.995186 658.985474, 23.677965 656.683716, 23.545467 654.538269, 25.158991 653.362793, 24.173838 651.173645, 23.605124 648.679138, 22.698990 644.416260, 21.541466 640.066345, 21.187927 637.832764, 21.911747 636.235352, 20.304190 634.630981, 20.530672 632.771484, 18.763407 631.826172, 18.889416 630.598633, 18.410707 628.381653, 16.320465 626.490112, 14.348592 624.266846, 14.314787 621.545349, 11.765722 618.573975, 10.865867 616.043457, 8.923508 614.040649, 8.301312 612.618042, 7.068015 610.406372, 4.985518 605.775024, 3.908371 602.947693, 4.228522 601.159668, 3.067753 600.018311, 3.011447 598.041687, 1.670979 595.018555, 0.000000 594.612305, 0.517851 593.043213, 1.109172 589.947388, 1.957116 586.682861, 3.173877 583.506958, 4.975680 581.744812, 6.556339 578.006653, 7.599367 575.210205, 8.423553 570.037842, 10.669004 563.336304, 12.319889 558.240723, 11.983203 556.991455, 13.230314 554.909058, 14.827196 551.757568, 14.565235 550.343994, 15.326417 549.061279, 15.923181 549.075439, 16.666361 545.070862, 16.176037 539.220764, 15.982313 532.648315, 16.680490 527.061829, 17.274742 522.608765, 18.044611 517.511719, 19.340494 512.736450, 20.876883 508.354980, 21.797878 504.107605, 22.913330 500.965637, 23.786392 494.688171, 24.418530 488.373596, 24.738682 481.721558, 25.254753 477.061584, 25.287197 473.094849, 25.766533 469.653259, 26.357435 466.107849, 27.669645 462.480530, 27.847984 454.817688, 27.695288 447.635071, 28.216486 438.722412, 29.206453 428.925476, 29.305565 420.313354, 29.605202 410.476379, 30.387630 401.061096, 30.897213 394.000305, 32.013607 387.197754, 31.909679 381.608093, 31.818626 376.778748, 28.615551 371.461182, 25.738276 367.698975, 24.718586 363.406372, 24.820210 359.170410, 24.637476 355.616150, 24.858097 352.730469, 24.718796 348.887939, 24.425228 344.909729, 23.040804 340.674255, 21.864861 335.546631, 21.119900 330.860596, 19.815540 327.621338, 19.453735 323.433167, 17.223984 321.056946, 15.956672 318.266602, 15.771216 315.058411, 14.100237 312.738770, 14.118657 308.859070, 13.868314 304.261353, 13.489763 299.969604, 13.241932 295.291870, 13.165740 292.144714, 12.561650 288.715820, 11.662005 287.456299, 11.491307 285.397339, 11.525845 280.473450, 11.871636 276.823303, 12.193566 274.067383, 11.181623 270.180786, 10.351575 266.850220, 10.518819 263.893250, 10.850168 259.952515, 11.301875 255.751099, 11.841913 251.263916, 11.147818 247.193054, 10.125512 242.751282, 9.636442 239.460144, 9.001688 237.244568, 9.070553 235.815674, 8.842607 233.008362, 8.476092 230.391541, 9.271603 227.873779, 10.065333 225.386902, 11.922919 224.173584, 13.020160 221.775879, 14.180929 218.915649, 15.440809 215.693726, 15.952066 213.754761, 16.254215 212.823303, 16.434961 211.055725, 16.739937 208.199219, 17.709076 206.087585, 19.702822 204.435852, 21.904631 202.867310, 24.203142 203.832458, 26.391449 204.549194, 28.704929 203.093567, 31.112391 201.313354, 32.099426 199.740417, 32.761810 198.714050, 34.694332 197.909241, 36.482109 196.861328, 37.231258 195.459229, 38.249062 193.720337, 39.601250 191.792358, 41.106766 189.817322, 43.136932 187.677185, 45.092167 183.511780, 45.934040 180.432983, 48.542343 179.510864, 50.403381 180.375244, 52.283260 178.273132, 54.619869 177.855347, 56.324444 176.496521, 58.796795 175.562073, 58.041576 170.643433, 58.645874 164.208008, 62.302231 160.977051, 62.146080 158.127014, 64.291580 158.540100, 68.656578 156.315613, 73.544136 155.097046, 77.797562 153.971008, 80.295769 152.191956, 81.931999 150.764038, 83.570427 149.771057, 85.721169 148.522583, 88.787766 147.922485, 91.719048 145.374573, 95.096901 142.943054, 97.444084 140.351685, 100.071533 139.464050, 101.758736 136.622314, 103.196541 133.740112, 105.438324 133.018799, 106.985809 129.664978, 109.148476 127.051575, 110.953835 124.627380, 112.617485 122.694031, 114.592918 121.757812, 116.021507 118.881287, 118.924530 118.284729, 120.155525 115.281677, 121.876740 112.579285, 123.746048 109.953796, 126.220909 107.951294, 128.460922 107.927063, 130.514420 106.000000, 130.706055 104.300232, 131.841599 103.432190, 133.250412 103.101501, 135.569122 101.078979, 136.337738 98.518494, 135.329041 96.759155, 135.506744 95.367554, 136.372482 94.191772, 135.867706 93.094849, 136.803467 92.448914, 137.838547 90.421082, 139.157974 88.393738, 138.827042 86.594727, 139.360596 85.005188, 139.928253 82.461975, 139.268494 80.162537, 141.134140 79.071899, 144.363174 77.707825, 147.016159 78.251221, 149.727127 78.959473, 153.402527 78.388855, 155.587173 77.278748, 157.251038 76.720581, 159.787338 76.756409, 163.549500 76.088074, 167.522034 75.170837, 170.923218 75.127258, 172.892685 74.395203, 174.568695 74.786743, 176.449615 76.285217, 179.715179 76.057800, 182.632217 75.388306, 182.867493 76.867432, 184.800323 77.746155, 186.716003 78.074036, 188.452606 79.223389, 190.444458 80.073547, 191.519196 82.933960, 194.391037 85.319885, 196.769501 84.808960, 197.688416 85.839539, 197.213470 86.732239, 198.571518 86.453674, 198.873779 87.504395, 201.590607 89.016541, 203.256882 90.214844, 206.236404 90.451111, 212.220047 89.031799, 214.979370 87.995667, 217.403259 88.336365, 222.680466 88.101196, 227.382889 88.339600, 231.382828 88.476257, 233.612274 88.648743, 235.462265 90.335754, 239.708740 92.580688, 243.833649 95.015259, 246.834625 95.880127, 248.194565 95.698364, 250.060989 97.461304, 253.272705 97.669067, 254.333008 96.848999, 256.223175 97.415161, 256.296875 99.198669, 259.576080 100.133972, 262.608826 101.561340, 265.686462 103.051331, 269.171173 104.444275, 273.019592 105.779053, 276.294556 107.109924, 278.283081 108.454773, 281.271149 109.318970, 284.159882 111.001770, 287.675354 111.923706, 289.402649 112.030945, 290.619812 113.257568, 292.308899 112.992859, 294.557587 114.243835, 297.922485 115.989868, 302.628204 117.946350, 307.189850 118.797791, 311.199371 120.395813, 316.550049 122.507263, 321.280914 124.277283, 324.985779 125.768677, 329.451721 125.778931, 331.682251 126.837036, 336.722107 126.223938, 342.734436 124.686279, 348.955078 123.387268, 354.312866 121.259949, 360.836548 119.190674, 367.679657 117.933472, 371.470490 116.486694, 375.937256 116.266052, 378.291443 114.386292, 382.211090 111.920044, 385.750580 109.410645, 389.507568 107.308350, 392.235168 103.670837, 394.170197 100.664185, 395.926178 97.961487, 397.537140 95.319397, 398.624695 93.232605, 398.150482 92.841370, 398.888641 92.194824, 400.604462 91.336487, 403.744385 89.357422, 405.352814 86.344177, 407.663727 84.058044, 410.050232 82.898743, 411.945435 80.359619, 413.881714 78.324219, 416.400787 76.725220, 418.873199 74.802612, 420.303162 72.777161, 421.538635 70.915405, 423.960541 70.329956, 424.686401 67.062500, 425.566010 64.767578, 427.039551 64.636536, 428.601624 62.290100, 428.439423 60.305298, 430.022156 59.688049, 432.311676 57.933472, 434.026672 55.161133, 434.364868 52.418457, 435.615540 52.685852, 435.807861 50.873718, 436.335815 49.200012, 438.791473 49.417480, 441.409668 48.791382, 444.963745 48.294922, 446.620605 46.570435, 449.403748 45.521484, 449.656647 42.478821, 448.387085 41.204285, 448.835175 39.825500, 447.817322 38.794617, 448.291229 37.541443, 449.222534 34.739136, 448.730835 33.956909, 449.297302 33.051086, 451.235413 32.025085, 451.984192 29.644775, 453.672913 27.664917, 454.671570 25.601990, 456.875732 23.775085, 458.893860 22.137268, 461.246857 21.685852, 462.551178 19.684387, 462.796265 18.161377, 464.402222 17.614746, 464.224091 16.411682, 466.190247 16.206360, 467.462952 14.562378, 468.278198 12.381287, 470.048798 11.852600, 470.666504 10.251892, 472.148376 9.356262, 473.043243 6.990112, 474.769806 4.729492, 476.074585 2.502075, 477.734894 0.000000, 478.887909 3.085632, 479.875366 5.628418, 480.741608 7.995361, 483.538422 8.544739, 486.349426 9.041443, 488.293671 9.694092, 489.855225 9.656189, 491.151581 11.047546, 493.636200 11.750854, 495.892792 11.741638, 497.797089 12.796509, 499.259125 14.685913, 500.603882 14.538086, 500.798553 16.202209, 502.329651 15.930481, 502.649536 17.448364, 504.808350 17.880920, 507.559296 17.018127, 510.497101 16.491638, 513.493225 15.848877, 517.092224 14.953918, 520.734192 14.895752, 523.955139 14.790955, 527.115051 15.140503, 529.626831 15.127136, 532.067810 14.316650, 534.669983 13.640320, 537.264893 12.962585, 537.789612 11.428894, 539.739014 12.033020, 542.427368 11.471375, 544.426514 12.840942, 546.901428 11.912659, 549.841614 11.441040, 552.978699 11.560059, 554.278625 10.246765, 554.814514 8.887390, 554.352661 7.631897, 555.004761 7.172424, 556.314941 7.222656, 558.092102 7.650208, 559.895630 6.564392, 561.623230 5.578491, 561.653381 4.554199, 562.366394 4.128845, 562.565430 4.690552, 563.478577 5.652405, 565.685425 4.829468, 568.113159 4.137756, 570.899597 3.914612, 570.912292 5.187378, 570.257080 6.533630, 570.187378 8.909363, 569.898926 11.596863, 571.243835 13.336609, 572.375427 13.903381, 571.750061 14.774658, 572.567444 15.315613, 571.222229 16.089172, 570.930054 17.768921, 573.145630 18.895569, 575.134338 20.083984, 576.373535 20.560059, 577.026367 21.273865, 577.559875 22.452576, 578.922058 23.530823, 580.861877 24.314697, 582.253235 24.755493, 580.969238 26.377075, 583.092651 27.948547, 583.492798 30.160950, 583.956848 32.605103, 586.330872 33.718567, 586.655823 36.547424, 587.774475 38.791687, 588.291992 40.614441, 588.247192 42.505798, 587.855713 44.158508, 588.737671 45.261475, 588.923706 47.228882, 588.228760 50.208679, 588.512451 52.488586, 590.281921 52.747314, 588.895081 54.373047, 590.912109 55.598816, 592.785583 55.009583, 592.901489 56.394775, 592.897156 58.541626, 595.334839 59.484070, 597.475464 60.522705, 597.609253 62.513611, 598.509949 64.897827, 600.052429 66.832703, 600.172913 68.787048, 601.103882 70.937622, 601.703796 73.273560, 604.068604 74.968445, 605.389282 76.325134, 603.864929 77.705872, 603.817383 80.909180, 604.580627 82.625671, 605.068970 84.251099, 606.371704 87.139404, 608.212036 88.658386, 606.947876 90.618652, 607.026184 93.997009, 607.393982 97.141052, 608.081848 100.180542, 608.924805 103.165466, 611.478149 105.024902, 612.147034 108.208618, 613.420654 109.657593, 612.561340 110.977783, 614.243286 113.846375, 615.170044 116.783325, 615.503235 119.907043, 616.786072 122.405334, 617.660950 125.305115, 618.120972 128.710632, 619.443481 132.461792, 620.118225 135.845642, 620.085083 138.927917, 621.941223 141.042664, 622.862915 143.316162, 622.766724 145.613525, 623.978088 147.407349, 624.760437 149.189026, 625.213074 150.913208, 625.513489 153.767029, 624.987305 157.034485, 626.307556 159.454468, 626.025696 162.676819, 626.391907 166.004028, 628.450500 168.413574, 630.130066 170.828186, 631.232910 173.283386, 632.211182 176.172791, 635.271301 179.074463, 637.682129 181.928894, 640.869263 184.085632, 643.351501 187.224121, 646.229980 189.916443, 649.745605 192.528076, 653.803040 195.564575, 660.634705 199.632385, 664.718872 202.574097, 667.890869 205.183411, 673.917175 208.008057, 681.584839 209.794495, 685.044983 209.827454, 690.015503 210.890991, 693.210266 211.187439, 694.227539 210.446960, 694.993225 210.901978, 698.756409 211.697388, 701.621643 212.017456, 705.359680 212.398071, 707.714111 212.401611, 709.175720 213.398499, 711.547791 211.543091, 714.704163 212.061768, 716.634399 210.794556, 719.923706 210.910400, 723.779480 210.775696, 725.726624 210.493652, 727.915161 211.042236, 731.414429 209.854980, 734.603455 208.885864, 734.442017 207.286316, 736.135315 207.139465, 738.307312 207.790527, 740.949097 206.924255, 741.179871 205.439819, 742.343567 205.878479, 744.410645 206.792847, 748.801880 205.507263, 752.655579 204.592346, 756.314880 202.656738, 759.333435 200.882812, 762.073181 199.265503, 765.383423 197.958435, 766.941467 195.481323, 769.136719 196.610962, 770.291748 194.574585, 772.250854 194.759888, 774.098389 192.275635, 777.333496 191.324707, 780.857849 190.071777, 784.059753 188.785950, 786.483887 187.757446, 787.152283 186.593140, 788.607910 187.144226, 791.483826 186.465637, 791.980896 183.876038, 794.725037 182.521484, 796.686340 181.085754, 798.970581 181.254517, 801.808289 180.768433, 803.899597 180.010498, 805.508484 179.665527, 806.401428 178.283020, 807.440735 177.374146, 809.033569 176.566528, 812.060181 176.921265, 814.692200 177.305908, 815.990173 175.583069, 818.590332 175.914185, 820.936951 176.108215, 823.068298 176.277283, 824.270325 174.641296, 826.136841 174.552734, 828.125671 175.086731, 829.574890 173.502258, 831.456421 173.481018, 833.627869 174.571899, 835.362244 175.829285, 837.631287 176.256592, 839.955444 175.123230, 842.025330 176.139099, 844.417664 177.289246, 846.094727 176.470886, 846.691650 178.159912, 849.018127 177.024048, 850.913879 177.476257, 853.096863 178.098083, 855.342957 176.506348, 857.698853 177.620972, 859.870300 179.613403, 863.020813 178.541626, 866.275940 178.072205, 868.057495 176.467468, 868.944946 177.365234, 871.001038 177.463135, 873.707764 175.888184, 876.216797 177.512817, 878.620850 175.888672, 880.915039 177.428162, 882.997314 178.420654, 884.454712 180.319336, 886.217896 179.085754, 888.436890 179.134094, 889.481873 182.088501, 890.177246 184.896118, 891.249023 187.574951, 892.589722 190.576233, 895.568726 191.651184, 897.058105 193.325928, 896.360168 196.060974, 899.553101 196.758423, 900.989319 198.164734, 901.561279 200.163513, 903.295471 200.451050, 903.126526 202.620850, 906.115479 204.757263, 908.804077 206.545227, 912.036865 208.511963, 915.600159 210.396484, 919.083313 211.687439, 921.547180 211.898804, 922.525818 211.392456, 923.181458 211.282776, 923.023499 211.987610, 924.024475 212.144287, 924.423279 212.606934, 923.700439 214.829651, 924.051758 216.593628, 924.898010 219.844177, 926.567017 219.582825, 928.743225 221.566772, 930.027649 225.296936, 931.781006 227.733276, 932.574097 229.985962, 933.525574 232.404907, 934.720154 233.386841, 934.909912 234.708862, 937.476929 237.915527, 939.200684 238.830505, 939.830444 239.755493, 940.624023 239.557800, 941.884460 240.203125, 944.342041 241.127502, 947.003174 242.913696, 950.642822 244.162598, 952.478943 245.676208, 955.618042 246.289795, 958.707092 246.905334, 960.218872 248.395203, 963.612427 248.582581, 965.553955 250.485657, 968.691284 250.468445, 971.188354 252.476318, 973.458252 254.603027, 977.053284 255.324524, 980.503052 255.878052, 983.957031 256.964722, 987.427368 256.977295, 988.615173 256.104614, 989.955383 256.199036, 991.041748 257.965515, 992.116272 259.826111, 993.565613 261.967407, 995.551941 264.364075, 996.550354 265.294434, 996.385132 266.669617, 998.011841 267.277588, 998.942322 269.225220, 1000.594360 270.456360, 1001.078125 272.901611, 1003.383301 275.839050, 1003.461304 278.352661, 1003.469116 280.389832, 1003.606018 283.814392, 1003.373047 287.133911, 1004.656982 290.074585, 1006.176880 293.301880, 1008.719971 294.810181, 1009.961975 297.208130, 1011.537170 296.390259, 1013.306213 296.612366, 1017.513489 296.217102, 1022.455261 295.507019, 1027.749878 294.596558, 1032.923950 293.444458, 1037.215698 292.649048, 1039.275146 292.111206, 1040.154541 292.770508, 1049.170166 291.942139, 1057.325439 292.220581, 1062.597534 293.609497, 1066.359985 295.842102, 1069.617310 299.360291, 1072.551392 303.387329, 1074.274536 306.823914, 1074.192383 311.562622, 1073.956665 317.279907, 1073.366089 321.239441, 1072.868042 324.541016, 1070.689331 328.474487, 1067.307495 333.144531, 1064.298340 337.624817, 1061.958496 341.398987, 1060.907349 344.289062, 1061.814453 345.721313, 1058.120850 347.573120, 1058.316895 350.142883, 1059.291748 351.176331, 1057.509033 352.457458, 1058.543213 353.527161, 1056.717163 355.375427, 1057.697266 356.973999, 1056.959351 358.244263, 1058.209351 359.362427, 1058.190674 360.417969, 1059.341919 362.859070, 1061.205688 366.047241, 1061.281006 368.644287, 1063.176025 369.433899, 1063.992676 369.806580, 1063.414917 370.665527, 1064.341675 373.917725, 1066.461060 377.449524, 1069.083008 379.465149, 1070.183960 381.187256, 1068.065430 381.452393, 1070.823242 385.736938, 1072.584229 388.905762, 1074.279419 392.821533, 1076.670288 397.540833, 1079.142944 401.587646, 1081.257446 404.117126, 1081.326782 406.067871, 1083.490234 410.562012, 1084.555908 412.740967, 1085.278320 414.920654, 1085.302490 416.406250, 1086.717407 421.498230, 1088.573364 427.260376, 1091.352295 430.877930, 1093.079346 435.350037, 1095.144409 440.312195, 1097.964966 444.467896, 1098.040161 443.557129, 1098.773560 444.569336, 1099.321533 445.892822, 1099.507812 448.023804, 1100.877563 450.834778, 1101.642090 451.891846, 1101.705688 453.019714, 1101.187866 455.197449, 1100.789551 458.583252, 1100.048950 461.334106, 1099.672729 464.444397, 1098.013306 468.156555, 1095.676758 471.784668, 1093.284424 475.614197, 1091.222290 478.637024, 1090.534668 481.353516, 1090.667114 483.446228, 1090.577026 485.579590, 1090.267578 488.461304, 1091.617310 489.358704, 1091.373535 490.801208, 1091.398926 493.617981, 1091.865601 496.333801, 1091.482422 499.712952, 1090.868652 502.989624, 1091.310791 508.190552, 1089.994019 513.039551, 1090.061646 516.546570, 1090.222778 518.512695, 1090.416138 520.202026, 1089.342529 521.953979, 1088.316406 524.644775, 1087.850098 526.923096, 1087.146851 528.863281, 1086.001099 532.253540, 1085.083984 536.066162, 1084.491089 538.741638, 1083.289185 542.187622, 1083.366089 545.299316, 1081.868530 548.919922, 1080.507568 552.679199, 1080.526367 554.880493, 1078.711792 555.663330, 1076.772217 559.230713, 1074.410889 562.261658, 1071.855347 565.569580, 1069.588623 569.174561, 1068.858765 572.416504, 1066.152954 575.821716, 1064.858276 578.629517, 1063.329468 580.570374, 1062.115479 583.162842, 1060.218384 584.926514, 1057.251221 588.436768, 1056.098877 591.699341, 1055.470215 593.584412, 1053.601196 595.290649, 1052.747681 597.702881, 1050.544434 600.083984, 1050.157471 603.109802, 1047.427856 606.097107, 1044.950806 609.535217, 1044.173584 613.407227, 1042.847168 616.108887, 1042.013672 618.976257, 1041.541382 623.045715, 1042.407959 629.415161, 1044.240112 634.575317, 1045.139648 639.608521, 1045.805664 645.539429Z "/>
    </clipPath>
    <filter id="dropshadow">
      <feGaussianBlur in="SourceAlpha" stdDeviation="2"/>
      <feMerge>
        <feMergeNode/>
        <feMergeNode in="SourceGraphic"/>
      </feMerge>
    </filter>
  </defs>
  <g inkscape:label="rois" inkscape:groupmode="layer" id="rois" transform="translate(0,0)" style="display:inline;" class="display_layer">
    <g inkscape:label="shapes" inkscape:groupmode="layer" id="rois_shapes" transform="translate(0,0)" style="display:inline;" clip-path="url(#edgeclip)"/>
    <g inkscape:label="labels" inkscape:groupmode="layer" id="rois_labels" transform="translate(0,0)" style="display:inline;">
    </g>
  </g>
  <svg:g id="sulci" style="display:inline;" inkscape:label="sulci" inkscape:groupmode="layer" class="display_layer">
    <svg:g id="sulci_shapes" style="display:inline;" inkscape:label="shapes" inkscape:groupmode="layer" clip-path="url(#edgeclip)"/>
    <svg:g id="sulci_labels" style="display:inline;" inkscape:label="labels" inkscape:groupmode="layer"/>
  </svg:g>
  <svg:g id="cutouts" style="display:inline;" inkscape:label="cutouts" inkscape:groupmode="layer" class="display_layer">
    <svg:g id="cutouts_shapes" style="display:inline;" inkscape:label="shapes" inkscape:groupmode="layer" clip-path="url(#edgeclip)"/>
    <svg:g id="cutouts_labels" style="display:inline;" inkscape:label="labels" inkscape:groupmode="layer"/>
  </svg:g>
  <svg:g id="display" style="display:inline;" inkscape:label="display" inkscape:groupmode="layer" class="display_layer">
    <svg:g id="display_shapes" style="display:inline;" inkscape:label="shapes" inkscape:groupmode="layer" clip-path="url(#edgeclip)"/>
    <svg:g id="display_labels" style="display:inline;" inkscape:label="labels" inkscape:groupmode="layer"/>
  </svg:g>
</svg>
