<svg xmlns:svg="http://www.w3.org/2000/svg" xmlns="http://www.w3.org/2000/svg" xmlns:xlink="http://www.w3.org/1999/xlink" xmlns:inkscape="http://www.inkscape.org/namespaces/inkscape" width="2150.4443359375" height="1024.0" id="svgoverlay" version="1.1">
  <defs id="defs4">
    <clipPath id="edgeclip">
      <path id="clippath" d="M1150.153564 723.182251 L1147.884644 721.407227, 1143.338501 716.266113, 1138.852173 711.653015, 1136.235718 709.776367, 1132.448364 705.962830, 1130.061401 703.774536, 1128.286865 700.809387, 1125.736084 698.574036, 1125.455200 696.875122, 1122.944336 694.106873, 1120.371582 691.074951, 1117.930298 689.250977, 1116.695190 686.602661, 1114.554688 685.110474, 1114.416260 682.202087, 1113.408203 680.769470, 1112.991333 679.083008, 1111.357300 678.246826, 1110.632324 677.222839, 1109.401733 675.671326, 1108.192505 674.448486, 1107.690796 673.591431, 1106.985352 672.838745, 1107.669556 672.148682, 1106.861084 671.071899, 1106.597412 670.348633, 1106.554688 668.681030, 1104.688232 665.623413, 1102.777954 664.533142, 1103.837036 662.728882, 1102.087646 659.515320, 1100.245728 658.520874, 1100.746826 657.158508, 1099.418091 656.567017, 1099.376709 655.204590, 1098.645752 653.603882, 1098.545166 652.196899, 1098.672485 649.936035, 1098.039307 648.695312, 1098.230957 646.240967, 1097.645142 646.104004, 1097.228638 644.761353, 1096.236938 642.349609, 1095.413208 641.454102, 1094.865356 639.596069, 1093.985352 637.088867, 1092.583496 635.625183, 1090.879761 633.872375, 1090.241699 631.295654, 1088.623657 627.461304, 1085.846680 623.112793, 1083.819214 621.782349, 1083.294678 619.190796, 1081.704102 615.355835, 1080.414673 615.279053, 1080.486328 613.221558, 1079.070801 612.253845, 1078.395752 609.357300, 1080.009521 604.998474, 1079.949463 600.242432, 1078.613037 598.967285, 1080.341309 597.272400, 1081.406494 594.656311, 1082.037720 591.545776, 1082.754761 588.378052, 1083.370605 585.422241, 1082.734619 583.728821, 1082.071777 582.952637, 1082.522949 580.886719, 1081.154053 580.398621, 1081.556519 578.515808, 1081.581665 576.093262, 1082.039307 573.164978, 1081.201660 569.595825, 1080.943237 566.984375, 1080.060791 564.922119, 1079.318115 562.300171, 1079.133179 559.079956, 1079.613281 554.771729, 1079.258179 550.376099, 1078.796631 546.091370, 1078.499390 541.940796, 1078.083252 536.877441, 1077.434082 532.608276, 1077.144409 528.054993, 1076.717651 523.364258, 1076.763916 518.042969, 1077.295654 512.683838, 1077.825806 507.205750, 1076.328857 506.432800, 1075.984985 505.324463, 1076.151123 504.546326, 1076.693604 504.390869, 1076.442749 503.706787, 1076.744141 502.673523, 1077.885986 502.732788, 1078.452026 499.269226, 1080.023682 495.381226, 1080.615967 491.064880, 1080.864990 486.951843, 1081.216919 483.728210, 1082.041260 480.552368, 1083.693848 476.383911, 1085.606812 473.152893, 1087.303223 470.088379, 1089.494263 467.018433, 1090.345703 463.965942, 1090.208618 463.029480, 1092.055298 462.464417, 1094.027100 458.649658, 1094.641479 455.448181, 1096.295898 452.010315, 1098.985474 448.627075, 1101.024536 446.270203, 1103.299316 443.849182, 1105.742554 440.748840, 1106.949341 438.653198, 1106.990479 437.375732, 1108.665771 436.562378, 1111.307617 435.338562, 1114.097534 432.034790, 1115.674683 429.181885, 1115.289429 428.531860, 1116.539917 427.030579, 1118.042358 426.289978, 1120.310791 423.232971, 1120.131958 421.514099, 1121.372559 419.279480, 1122.144897 417.685486, 1122.770020 418.244019, 1124.260254 417.791687, 1126.255859 414.008850, 1127.658936 410.667114, 1127.462524 408.207947, 1128.786621 406.711609, 1128.908081 403.575439, 1129.600830 400.321655, 1130.389771 396.566711, 1131.310791 392.782898, 1132.072388 389.286438, 1132.719604 386.582214, 1133.836670 384.893677, 1134.767334 381.737915, 1135.981201 377.504028, 1137.167725 373.982483, 1137.679932 370.549377, 1138.010742 367.679260, 1138.433105 364.883728, 1139.425049 361.284607, 1140.349243 358.032776, 1141.443970 356.510803, 1142.826416 353.341553, 1142.599365 351.085571, 1143.308472 350.405823, 1144.558838 347.594482, 1145.670288 344.272461, 1147.038330 341.580750, 1149.493042 339.174805, 1149.868530 335.830933, 1150.561890 332.766602, 1150.819214 330.370422, 1151.686157 328.454102, 1153.585815 327.088806, 1154.822144 325.140991, 1155.143677 323.773010, 1155.851074 322.865845, 1156.772827 321.658875, 1158.324341 319.619141, 1159.648682 317.182983, 1159.124512 315.192322, 1161.236450 314.486877, 1161.967651 312.811646, 1164.186401 312.884216, 1168.069458 310.152527, 1171.703979 308.093018, 1175.776001 306.098328, 1179.578491 304.601562, 1183.571533 301.549194, 1187.800537 298.479919, 1189.317261 296.702759, 1191.454956 295.188477, 1193.538086 292.857178, 1195.477295 290.365112, 1196.899048 286.654541, 1196.948608 285.468994, 1197.509521 285.023132, 1198.429443 283.766541, 1200.404663 281.086853, 1203.326782 276.971924, 1207.101929 272.045410, 1208.507202 269.211792, 1210.219727 267.917664, 1212.109863 264.650513, 1214.094727 261.856628, 1214.913696 260.174316, 1216.480469 259.812439, 1219.495972 255.958374, 1220.202026 254.181091, 1221.749756 252.962158, 1222.698364 250.547119, 1223.687134 248.764648, 1225.158813 246.941467, 1227.008789 243.843384, 1229.522095 239.561768, 1231.507935 235.429749, 1231.020630 234.322998, 1231.897827 234.022217, 1233.286499 233.799316, 1234.332397 231.077087, 1235.360596 228.849060, 1234.635620 227.713074, 1236.270264 227.248840, 1238.040649 226.362610, 1238.464233 225.096313, 1239.604858 225.315125, 1241.513184 224.005249, 1243.600586 222.895447, 1243.344849 221.580322, 1244.227417 221.597839, 1245.731689 221.169312, 1246.713501 218.891052, 1247.105469 216.681335, 1249.305298 214.842285, 1249.153564 212.988770, 1249.765015 212.138062, 1250.747314 210.720764, 1249.033936 207.680115, 1248.746094 205.330017, 1247.130981 204.065491, 1247.661987 202.319519, 1249.253662 201.097595, 1251.165405 202.747925, 1253.232178 202.205750, 1255.281738 204.347168, 1257.154785 203.694214, 1258.788452 202.899292, 1260.226562 202.013062, 1262.146729 203.270081, 1263.227417 201.988831, 1264.534302 200.832275, 1266.341797 201.612671, 1267.302490 200.059570, 1269.241333 199.461792, 1271.433960 199.375793, 1272.181763 198.173950, 1272.846802 197.346375, 1273.828857 197.185913, 1275.316528 197.214478, 1275.948364 195.523804, 1277.090454 196.196777, 1279.030640 196.238770, 1279.598145 195.010071, 1280.473145 195.510193, 1281.477661 195.409973, 1283.192017 195.354065, 1286.055054 195.477844, 1287.854370 195.494873, 1289.768433 195.895569, 1290.326050 193.829163, 1292.497192 193.504333, 1294.151978 192.233032, 1295.321411 192.698914, 1297.049438 193.078979, 1298.311035 190.383667, 1300.326294 190.116577, 1301.727417 188.566528, 1301.903442 187.615601, 1303.646240 187.804932, 1306.150635 187.813049, 1308.234863 189.334167, 1311.296143 189.424316, 1314.369263 188.808777, 1316.846191 187.832764, 1319.597046 187.265503, 1320.839233 188.751587, 1323.643555 188.897644, 1325.466553 190.073059, 1326.028320 191.378296, 1327.933228 192.737183, 1330.288452 193.330688, 1332.207520 194.477295, 1335.339722 196.203064, 1338.702026 196.839111, 1341.091187 197.995911, 1343.282959 198.981018, 1346.116699 199.565918, 1348.903076 199.128418, 1351.406982 199.636475, 1353.393188 201.048096, 1355.934326 200.968201, 1358.298340 200.854797, 1359.275024 200.788025, 1360.292114 201.917725, 1363.179077 203.532593, 1366.354004 204.653809, 1369.031128 204.814331, 1370.314575 204.463074, 1370.832520 205.625610, 1373.743774 206.038025, 1375.061279 205.014954, 1375.755005 205.717896, 1377.782104 206.255310, 1380.175537 206.134094, 1382.531372 206.708008, 1385.329224 207.565735, 1387.822388 209.509827, 1390.563599 209.660400, 1392.842285 211.688354, 1396.100342 212.352051, 1399.024658 212.590637, 1400.909912 214.644165, 1403.601440 216.726929, 1405.616577 217.747009, 1406.576294 218.156799, 1408.324951 219.035706, 1411.174438 219.215637, 1412.801636 220.257690, 1415.555420 220.074036, 1418.392822 219.962524, 1421.211792 219.787964, 1423.299805 221.284180, 1425.719849 222.682922, 1428.419189 224.009705, 1431.409912 225.372925, 1434.609741 226.232788, 1437.624146 227.092590, 1441.215698 227.277771, 1444.694336 226.225342, 1446.213745 226.553833, 1452.388062 224.441772, 1455.717773 222.140991, 1460.524658 220.043457, 1466.627075 215.807983, 1467.346558 213.806274, 1471.432617 210.249756, 1474.878296 206.466980, 1478.098755 202.836121, 1480.939453 199.261902, 1483.447144 196.039490, 1485.928101 193.009949, 1488.618408 189.784729, 1489.632202 186.801147, 1490.445679 183.428040, 1491.094482 180.398804, 1493.061035 178.242554, 1493.635254 175.387573, 1495.734009 172.916626, 1497.955200 170.214111, 1499.872314 167.863037, 1501.761719 165.561707, 1502.148315 162.532959, 1502.452271 159.504211, 1502.728882 156.832825, 1504.095337 155.251587, 1504.474976 153.188904, 1506.118652 150.809204, 1506.718018 147.570068, 1507.075073 145.054749, 1506.949951 142.921936, 1507.666626 141.789429, 1508.934326 141.308716, 1508.219971 139.538879, 1509.648804 139.084717, 1509.877808 137.189880, 1508.703857 136.074158, 1510.103027 135.332397, 1509.971924 132.656982, 1508.623657 130.505676, 1509.072266 128.621399, 1511.144165 127.658142, 1510.877563 125.734070, 1510.333740 124.069702, 1509.883179 121.979614, 1511.389771 120.623474, 1511.246338 118.547791, 1510.632690 116.906494, 1512.215210 115.537048, 1514.037964 113.443542, 1514.025635 111.403015, 1514.145142 109.446045, 1512.032715 107.154114, 1511.750000 104.727783, 1511.616821 102.299805, 1511.673218 100.647278, 1512.178345 98.729797, 1512.662842 95.961060, 1512.206909 93.554382, 1512.244385 90.376526, 1512.535645 87.364197, 1512.540527 84.430237, 1512.877075 81.405884, 1514.980225 79.259583, 1515.461792 77.257141, 1516.568726 75.736572, 1517.680664 74.003296, 1518.099731 70.998718, 1518.435303 67.591125, 1517.609497 65.513550, 1517.124756 64.495361, 1516.892822 62.409485, 1517.007935 58.552246, 1516.235962 55.297424, 1516.544556 53.754333, 1517.787842 53.089722, 1516.758911 51.725647, 1517.676514 50.834290, 1518.572266 48.528442, 1519.786987 46.113647, 1519.824707 44.425537, 1520.713135 42.954163, 1522.589111 42.031494, 1524.717529 40.474670, 1525.283569 38.074646, 1526.602051 36.333801, 1528.811035 35.347046, 1528.778320 33.175049, 1529.688721 31.510315, 1531.238770 30.286194, 1530.428833 28.909607, 1531.446777 27.304504, 1533.804810 25.481384, 1532.883301 23.316040, 1532.245972 22.283875, 1532.171509 21.222595, 1532.382202 19.416504, 1534.141357 20.930237, 1535.895386 23.132385, 1538.508911 22.234619, 1539.422485 24.054321, 1541.413330 23.289734, 1543.348511 22.351257, 1545.939697 23.599365, 1549.010986 23.836548, 1551.266968 22.511475, 1552.297729 21.802307, 1552.986938 22.913574, 1555.639404 22.189331, 1557.503540 20.674011, 1558.561157 20.708374, 1559.834473 20.667419, 1561.986450 20.051270, 1563.966431 19.327698, 1565.311035 18.936462, 1566.626831 18.895630, 1567.407593 18.131104, 1567.902954 18.638367, 1569.680786 19.092834, 1571.250854 16.460266, 1573.296875 15.820435, 1574.921387 14.245056, 1576.687744 12.416748, 1578.477539 10.349854, 1579.953979 8.137756, 1582.504761 7.439819, 1585.049194 6.354553, 1587.536011 5.386902, 1590.117432 4.674072, 1591.515381 2.529053, 1594.574951 1.646301, 1596.833008 0.000000, 1598.184570 0.787476, 1599.245850 1.704895, 1599.994629 3.143311, 1600.734863 4.912659, 1602.787231 4.907166, 1602.019897 6.733643, 1603.433716 8.135742, 1605.274536 7.985901, 1606.809082 8.771423, 1608.158447 10.281982, 1609.846924 11.915039, 1611.953735 12.581848, 1612.954224 13.991516, 1614.201294 15.997009, 1616.178711 16.672668, 1617.937866 16.723511, 1619.786011 18.180115, 1622.043701 17.274109, 1624.239868 17.718689, 1626.500244 18.183533, 1627.783569 18.359619, 1627.892334 19.796021, 1630.300049 21.312195, 1630.515503 23.757202, 1632.855835 25.241211, 1635.038330 27.097046, 1636.384399 27.305664, 1636.417847 28.534546, 1636.494141 30.655640, 1636.828613 32.994934, 1637.287964 35.282837, 1637.604370 37.631592, 1639.689087 38.489197, 1641.778442 39.147827, 1643.822876 40.039917, 1645.224609 40.416382, 1646.015015 41.336487, 1646.785522 43.036133, 1648.893433 43.604797, 1651.291504 44.528015, 1653.443726 44.884583, 1654.873413 46.697693, 1657.384155 47.474609, 1658.466797 49.050537, 1659.960815 49.199890, 1659.644043 51.295837, 1662.364868 52.146545, 1663.704102 53.967285, 1666.063599 54.450562, 1666.927124 56.565613, 1669.104126 57.184143, 1669.956665 59.830627, 1672.307495 60.454346, 1673.893188 61.560059, 1675.638550 61.939209, 1676.923340 63.195068, 1679.287354 64.361938, 1681.815796 65.717224, 1684.508057 67.947571, 1686.724609 69.117615, 1688.736084 70.267639, 1691.888794 71.191040, 1694.571777 71.858887, 1697.287598 73.530151, 1701.113647 74.647278, 1704.328735 75.543396, 1706.157959 77.314148, 1709.557495 78.518433, 1712.756348 79.389404, 1715.851562 79.876831, 1719.758667 80.418518, 1722.336060 80.577820, 1722.989014 81.528198, 1727.278931 82.093567, 1729.479858 82.001343, 1730.264038 82.733582, 1734.376587 83.588562, 1738.481934 84.324402, 1743.280640 85.532288, 1750.218872 86.874146, 1758.512695 86.350464, 1761.650146 84.756714, 1762.682373 83.831909, 1764.447754 83.916016, 1768.391724 81.880798, 1773.487427 79.155334, 1778.005493 75.560913, 1782.148071 73.547974, 1786.544922 73.048401, 1789.294067 72.967834, 1791.452515 73.226685, 1793.068970 72.893433, 1795.130493 73.523193, 1796.351807 73.138367, 1797.525146 73.735962, 1800.187134 73.085938, 1803.176758 71.823853, 1806.333740 71.384949, 1809.892090 69.285278, 1813.027954 67.374817, 1816.630249 66.873413, 1819.589844 65.313904, 1823.254272 65.398132, 1827.283813 65.041077, 1830.276367 63.669250, 1833.227295 62.231934, 1835.659790 61.113464, 1837.742188 60.138733, 1839.701538 59.048157, 1841.762573 58.141479, 1843.948975 57.424683, 1846.489014 56.652039, 1848.972656 55.856323, 1850.263550 53.994873, 1852.419922 53.483459, 1853.069092 52.234375, 1854.253052 52.650635, 1856.560913 51.631958, 1859.009644 50.709473, 1859.463745 49.448425, 1861.004272 50.058228, 1863.177856 48.993774, 1865.696411 47.878784, 1868.364990 46.889404, 1871.091187 45.564148, 1873.826782 44.066589, 1876.555908 44.960876, 1879.965210 43.098816, 1881.141602 40.741882, 1882.587524 39.071350, 1885.041992 39.181152, 1886.949585 37.661804, 1888.684204 36.129089, 1890.960205 33.125000, 1892.590942 31.567810, 1893.729004 30.616821, 1895.381104 28.918396, 1896.950928 26.624695, 1898.944092 26.121216, 1900.577881 24.260559, 1901.420532 23.250488, 1902.845215 23.464233, 1906.570068 21.517883, 1910.477051 19.805237, 1913.597290 18.183105, 1915.973633 17.301453, 1917.868896 18.475464, 1920.133911 19.068176, 1922.644165 19.230530, 1924.813843 19.239807, 1926.834717 19.053040, 1927.537354 17.127136, 1929.160156 16.975159, 1930.801270 16.505676, 1932.465820 15.661377, 1934.265503 14.680725, 1934.927490 13.354919, 1936.136597 13.210999, 1937.840820 14.970398, 1938.666626 17.315430, 1939.942627 19.309326, 1941.000977 21.569519, 1943.565430 23.289124, 1945.548950 24.746277, 1946.510498 26.211365, 1947.320679 27.994019, 1950.039673 29.697876, 1952.983887 31.537964, 1956.795410 32.689941, 1959.534546 33.641235, 1961.204590 35.135925, 1963.159546 37.013184, 1966.406128 38.110046, 1969.451294 39.217041, 1971.195190 41.175903, 1974.145752 42.339050, 1976.541260 43.269714, 1978.641968 44.842163, 1979.274780 44.324402, 1980.033813 44.903748, 1981.043335 45.946350, 1983.114990 48.102600, 1985.111206 50.497375, 1987.923706 52.355713, 1989.384399 55.081909, 1992.617188 57.687073, 1995.429443 60.571289, 1997.212891 60.274841, 1998.369751 62.108337, 1999.843018 62.761292, 2000.064453 63.753540, 2000.864624 65.699341, 2001.247070 68.421021, 2005.401611 71.912048, 2008.817261 74.667114, 2011.492920 77.891479, 2014.267090 80.862427, 2016.397095 84.070007, 2017.991211 85.269348, 2018.460205 86.732971, 2020.884766 89.906128, 2022.833496 91.739136, 2024.277832 93.941162, 2027.468750 96.566650, 2030.413208 98.890137, 2033.606201 100.831116, 2036.983032 102.850403, 2040.561646 105.020081, 2042.673218 107.235474, 2044.479370 108.075073, 2045.431519 109.658264, 2048.806152 111.326355, 2050.400391 112.269043, 2051.640381 113.173157, 2052.845703 114.586243, 2054.359375 115.809998, 2056.287354 116.658508, 2058.152832 117.504089, 2059.785400 118.452026, 2062.499023 119.130493, 2063.941895 119.945984, 2065.192871 121.382385, 2069.319580 124.015564, 2073.372070 126.281616, 2075.861084 127.283936, 2077.810547 128.619141, 2078.260986 128.389771, 2078.792480 128.829407, 2079.088867 129.693054, 2081.774170 130.965637, 2084.263184 132.041321, 2086.486084 132.821777, 2088.394043 133.074158, 2090.406738 134.423767, 2092.655029 133.840820, 2094.859863 132.577576, 2096.680176 131.319092, 2098.550293 131.925781, 2100.359131 130.512817, 2102.424561 131.513672, 2101.809326 131.828491, 2102.351562 134.317383, 2100.300781 135.128845, 2099.828125 137.372559, 2098.944824 139.114990, 2099.893311 140.888489, 2101.362793 141.617676, 2100.730713 142.561523, 2101.801270 144.196289, 2101.899414 146.017395, 2103.458252 146.680420, 2104.248047 147.056519, 2103.656494 148.010925, 2105.171387 149.031738, 2106.508545 149.993958, 2108.076904 151.513428, 2108.675293 153.847229, 2109.235840 157.312439, 2109.568115 160.045898, 2110.390381 163.687866, 2113.079834 166.563477, 2115.222412 170.254761, 2116.294434 173.772217, 2117.740234 177.756470, 2118.722412 182.579346, 2119.119873 186.585632, 2119.502197 190.652649, 2120.305664 192.500366, 2119.719727 193.827881, 2120.643066 196.829834, 2121.640381 197.717529, 2121.593262 200.060242, 2122.122803 202.684082, 2122.285889 205.272034, 2123.422363 206.169617, 2123.554932 208.737671, 2124.868164 211.646179, 2124.838135 214.783264, 2125.796387 216.880798, 2125.202393 218.860718, 2126.047607 220.949890, 2125.437744 223.335938, 2125.129639 226.970459, 2125.710205 229.145813, 2124.558838 230.519165, 2124.727783 234.956726, 2123.920166 239.266724, 2123.250244 244.522766, 2122.050049 249.752747, 2122.274170 251.993713, 2121.379639 253.751526, 2120.431885 257.043518, 2120.393311 260.563660, 2120.348633 263.065979, 2120.167969 265.768188, 2121.020508 268.997986, 2121.653076 271.596313, 2121.524658 273.736633, 2122.191895 275.226685, 2121.559570 276.752075, 2121.374512 281.723206, 2122.262207 288.115295, 2122.586670 293.583191, 2123.360840 297.316589, 2123.354004 301.080017, 2123.723145 303.645752, 2122.719238 305.170593, 2123.520996 308.428711, 2122.629639 310.135742, 2122.072754 315.067688, 2121.406982 319.845337, 2120.488770 323.474426, 2120.633301 325.642883, 2119.612549 328.034424, 2119.078369 332.728516, 2118.629395 338.024902, 2119.096680 343.474426, 2118.418945 346.179871, 2118.188477 350.948730, 2118.457520 356.032410, 2118.836670 362.675720, 2120.046631 371.165955, 2120.515625 377.683105, 2121.638184 384.803040, 2122.862549 391.072388, 2123.876465 396.656921, 2125.409912 401.914856, 2127.667725 407.822449, 2129.738281 411.168152, 2131.039307 415.518127, 2132.703857 417.082458, 2133.826660 419.085266, 2134.938477 420.341553, 2134.627197 421.575684, 2135.532471 423.004028, 2134.908447 424.637756, 2134.720215 428.634888, 2135.933838 430.496216, 2136.736084 432.276367, 2137.213867 435.018555, 2138.795166 437.218933, 2139.443359 440.080566, 2140.685547 443.727417, 2142.745361 446.037170, 2143.623291 449.444214, 2145.072754 453.728027, 2147.095459 456.886780, 2147.576416 462.768066, 2148.365479 467.935608, 2148.700439 472.672485, 2148.556152 478.345825, 2148.669434 484.747192, 2148.972168 490.442322, 2149.610596 497.112732, 2150.444336 498.031128, 2149.880859 499.222290, 2149.061279 502.512268, 2149.615967 504.004700, 2149.003174 505.277710, 2147.521729 508.555481, 2147.784912 510.595276, 2147.071777 513.732422, 2144.891357 517.855774, 2143.316650 520.234009, 2141.347656 522.742310, 2140.510742 526.037109, 2139.840820 528.730042, 2137.590088 531.543640, 2136.727539 535.101196, 2133.812500 539.003296, 2132.373291 541.512695, 2131.594482 543.149231, 2129.540771 545.038086, 2128.644775 547.390015, 2125.941162 549.689026, 2122.352051 552.441162, 2119.471680 555.195801, 2118.053955 557.469055, 2117.083740 558.976440, 2115.026123 559.739868, 2113.285645 561.732239, 2112.527588 563.012878, 2110.742676 564.611084, 2108.932129 566.370911, 2109.104980 567.297729, 2108.246338 567.847534, 2107.333496 568.085327, 2105.452637 568.731323, 2102.656250 570.323242, 2101.246094 572.045288, 2099.152344 573.403992, 2098.442627 575.058228, 2097.247070 576.520020, 2096.155029 578.305908, 2095.181396 580.195068, 2094.518311 582.107544, 2091.679932 583.080078, 2091.488770 584.520508, 2089.969727 584.947510, 2088.934326 587.452759, 2088.476318 589.603027, 2087.968506 591.059204, 2086.313477 591.480591, 2084.838867 591.761353, 2084.626953 590.777527, 2083.029297 590.266113, 2081.864258 588.524048, 2079.366943 588.929138, 2077.136475 588.313721, 2075.712646 589.363647, 2074.499512 588.757385, 2073.315186 589.987427, 2072.041016 589.559326, 2069.459229 589.883545, 2067.328613 589.716797, 2064.942383 589.447510, 2062.029297 589.062866, 2059.500244 591.285645, 2057.518555 591.088928, 2054.805908 592.442688, 2051.861572 593.754761, 2048.512207 595.083984, 2045.362427 597.376709, 2042.406860 600.059204, 2041.250732 601.671265, 2040.101318 602.674683, 2039.307739 602.295654, 2035.095459 605.282410, 2030.004639 607.787598, 2028.085693 609.337952, 2027.166382 609.231079, 2025.590454 609.557251, 2024.703003 609.351135, 2020.819092 609.248169, 2014.957397 608.984192, 2010.636475 609.131958, 2006.494263 609.676514, 2003.067871 610.835693, 1997.582031 611.466309, 1994.156982 611.428101, 1990.221069 611.050110, 1988.058838 611.917236, 1985.250244 611.813843, 1981.329956 612.670044, 1977.664185 614.222473, 1974.163208 614.099121, 1971.003174 613.558105, 1968.380859 614.131104, 1965.276611 614.490356, 1962.623779 615.970886, 1960.266479 617.290771, 1957.128540 616.673401, 1953.755981 616.094116, 1950.601929 615.295471, 1948.571655 617.115295, 1947.446777 618.475769, 1946.561768 618.963501, 1945.604492 617.142395, 1942.183350 616.440796, 1938.898804 615.528564, 1938.149414 617.504395, 1936.761353 617.210144, 1934.461304 616.624146, 1932.249512 616.504761, 1929.220459 616.991211, 1925.541748 617.488525, 1921.160156 618.084473, 1918.874512 619.054626, 1918.026978 619.618652, 1916.317871 619.850464, 1913.967896 620.501465, 1911.303833 620.384705, 1906.883789 620.829895, 1903.074707 621.268005, 1900.465454 622.673218, 1897.864014 623.747681, 1895.027954 623.669861, 1892.202393 623.424805, 1888.032227 622.560364, 1882.780640 620.956665, 1877.764771 620.490784, 1873.452881 620.887573, 1869.822021 621.176636, 1867.838135 622.115601, 1867.873535 623.321167, 1865.986084 623.583984, 1862.453369 624.237854, 1858.519775 628.640381, 1858.866577 631.024292, 1856.477783 631.742920, 1852.027588 632.884949, 1849.377441 635.046509, 1847.814819 636.630127, 1846.919189 637.959717, 1844.842651 638.386414, 1842.290283 639.943604, 1842.888184 644.429016, 1844.808594 650.688354, 1842.919556 653.025208, 1840.589478 653.591919, 1837.338867 653.636719, 1835.406738 653.819092, 1834.151123 653.779907, 1832.439087 652.594971, 1830.871094 653.835388, 1828.662842 653.955872, 1826.335449 655.054810, 1825.296997 656.618347, 1824.619263 656.743591, 1824.165894 657.840088, 1823.299194 658.269043, 1821.421753 659.377197, 1819.228271 663.120117, 1819.335327 664.970093, 1817.965576 666.665039, 1817.049194 670.480957, 1816.905640 673.444763, 1817.461426 675.272095, 1816.572998 675.852051, 1815.875488 678.683777, 1814.936401 680.404663, 1813.989380 681.647461, 1813.403076 685.190796, 1812.389648 688.890259, 1811.708740 692.264404, 1810.755249 695.079285, 1809.428467 697.916504, 1807.954712 701.161865, 1807.945312 705.286865, 1807.884521 707.624756, 1807.661011 710.034790, 1807.211426 714.059448, 1805.772949 717.965210, 1804.250122 721.305054, 1804.187378 724.648804, 1803.635010 728.078735, 1801.772461 730.698242, 1799.516602 733.187866, 1796.633545 736.658936, 1795.369141 739.057129, 1795.020996 740.237000, 1794.111084 739.585693, 1791.452148 742.864075, 1789.861572 746.479248, 1788.644043 749.742920, 1787.615601 752.588379, 1786.721313 754.386292, 1786.492310 755.129333, 1785.462769 756.030396, 1783.887329 758.358032, 1781.759399 760.958191, 1781.639526 762.604980, 1780.164429 763.279053, 1778.048950 763.930969, 1776.578369 765.910278, 1774.461304 768.062073, 1773.989868 769.166748, 1772.748413 770.051086, 1770.719604 772.355469, 1767.917114 773.213074, 1764.153076 775.183228, 1760.551147 779.242371, 1758.801025 781.693787, 1756.402466 783.400818, 1753.526489 785.922363, 1751.264771 787.864502, 1747.715698 789.189819, 1746.122437 790.933533, 1743.692871 791.274719, 1740.541992 792.657471, 1737.644409 793.787720, 1735.552002 795.768860, 1733.255249 797.095703, 1730.466309 798.418274, 1728.991211 799.984192, 1728.206787 800.853699, 1727.205200 800.617065, 1724.684937 803.334167, 1722.738159 804.788452, 1720.318726 806.881165, 1718.830200 809.704712, 1716.774780 812.226501, 1715.082642 813.627991, 1713.031250 815.822815, 1710.516846 817.877930, 1706.302734 821.053833, 1701.596069 824.384460, 1697.077637 827.668152, 1693.333130 831.229431, 1692.164185 834.348999, 1692.587158 837.393311, 1693.178833 841.042175, 1694.184082 844.185303, 1694.689087 846.194214, 1695.406616 847.313477, 1695.494263 849.010254, 1696.785278 850.631653, 1697.014893 853.415100, 1698.905640 853.758118, 1698.642090 855.612061, 1698.861450 857.830322, 1698.386230 860.116821, 1699.420776 861.022705, 1700.016235 861.573242, 1698.755615 862.500122, 1699.644409 863.633057, 1698.793457 865.601013, 1699.171631 868.489502, 1700.324585 870.225037, 1700.833618 873.041077, 1703.644287 874.866150, 1703.313232 877.324524, 1704.457031 879.134827, 1703.467529 881.095825, 1704.249390 883.599487, 1705.368652 886.372437, 1705.987793 889.307190, 1705.146118 890.901367, 1704.239136 892.942505, 1704.851685 896.475769, 1705.018311 899.345825, 1706.622559 901.451782, 1706.586426 903.646973, 1706.696289 905.286377, 1706.139526 907.195984, 1706.323975 909.173035, 1705.874023 912.704224, 1705.610840 915.738281, 1704.309937 917.770874, 1701.967896 919.388306, 1699.181763 920.750000, 1696.428833 921.747070, 1694.364502 922.224365, 1692.635864 922.648804, 1690.388550 922.977295, 1688.659790 925.811768, 1685.592773 926.310364, 1683.754150 928.255188, 1681.536987 928.968628, 1678.950562 929.372925, 1677.582275 931.489929, 1675.060059 931.050293, 1672.464233 931.326538, 1669.940308 931.811707, 1668.688477 933.439148, 1667.543579 934.832764, 1666.165283 934.358154, 1665.038696 933.823242, 1664.387939 934.694397, 1664.935669 935.876160, 1663.086060 935.541931, 1661.487671 937.630005, 1662.689697 939.310913, 1663.507935 939.742188, 1661.939331 940.338501, 1662.935303 942.456909, 1661.342773 943.729065, 1662.585327 945.400024, 1663.782837 945.262329, 1664.354858 945.561279, 1664.162109 945.951172, 1663.499512 946.515198, 1664.281372 947.663879, 1663.340088 948.127197, 1662.276123 949.318359, 1662.500244 950.874390, 1660.952026 951.065857, 1661.121216 952.973389, 1661.211548 953.888733, 1661.746582 955.651367, 1660.961670 958.457825, 1660.188965 956.443420, 1659.912231 955.219116, 1660.016724 953.818237, 1658.475342 951.343750, 1657.166138 952.291870, 1656.962769 951.240479, 1656.434814 949.427429, 1653.471191 948.005493, 1652.638062 946.176636, 1652.467529 944.611267, 1650.886841 943.524597, 1649.209595 943.989563, 1647.800903 943.203979, 1648.508789 940.953491, 1646.278320 940.836792, 1645.041626 939.300476, 1643.279663 940.395813, 1642.490356 939.233459, 1642.461670 937.241760, 1641.134033 940.257568, 1639.997070 938.867188, 1637.975586 939.443787, 1636.485474 940.309753, 1635.241821 941.194763, 1634.452271 940.048706, 1633.123047 941.276062, 1632.923340 939.261047, 1631.083618 940.365173, 1631.322388 938.649963, 1630.002441 937.457214, 1626.937012 939.633179, 1623.849243 941.779785, 1622.483276 940.267029, 1619.475952 941.605713, 1616.531372 942.305908, 1613.535522 942.877808, 1611.755005 941.671509, 1608.354248 941.691589, 1606.031738 941.376099, 1604.114258 940.814453, 1601.714722 939.643982, 1599.012451 938.072693, 1594.845337 937.625427, 1590.709717 936.752014, 1586.498535 935.762085, 1582.721802 935.087524, 1580.645874 935.060486, 1580.651855 933.277649, 1576.530762 931.018555, 1572.430054 930.136597, 1568.865356 929.175293, 1564.124023 929.013062, 1561.232422 929.641724, 1558.545288 930.255310, 1554.964355 930.659668, 1552.726074 931.531799, 1550.049438 931.606995, 1547.283447 931.169617, 1543.521240 931.690918, 1540.064697 931.542175, 1538.194214 932.352478, 1535.911499 932.302734, 1533.326782 931.461487, 1529.717163 930.791748, 1526.357788 931.549744, 1524.620361 932.065369, 1522.415039 931.025574, 1520.600098 931.492554, 1518.812012 929.976929, 1516.011841 930.290527, 1513.680542 930.463806, 1512.528687 931.632263, 1511.155518 932.142212, 1509.577148 930.302979, 1507.913208 931.267212, 1505.167847 931.348267, 1504.245850 932.453491, 1503.117676 931.894348, 1501.086060 930.761475, 1499.119873 931.608704, 1497.259277 932.272095, 1496.291382 934.033264, 1494.699463 935.050659, 1493.770508 933.474854, 1492.802612 934.907227, 1491.700439 934.368042, 1489.757935 933.349670, 1488.452393 934.645569, 1487.325439 935.316162, 1485.263184 935.250549, 1482.895386 934.264587, 1479.909668 934.495544, 1477.466431 934.881775, 1474.527466 934.618103, 1470.593262 936.014343, 1466.788452 935.735352, 1462.673096 937.086487, 1458.290894 938.446838, 1453.812256 939.723083, 1449.554321 940.818237, 1445.158813 941.941711, 1441.644043 941.782166, 1437.459473 942.797119, 1433.254028 943.930847, 1429.239258 945.199219, 1426.380981 946.914978, 1421.868774 947.583801, 1418.560303 949.774109, 1414.787842 951.892578, 1410.815796 952.453247, 1406.653687 952.926514, 1401.873047 953.914246, 1397.011963 955.329041, 1394.107056 957.695618, 1390.756592 958.527954, 1386.679565 960.539124, 1383.756958 962.854736, 1380.272583 965.085144, 1377.944214 966.433838, 1375.220581 968.171814, 1371.670288 971.535278, 1369.520508 973.633789, 1369.093994 974.598755, 1368.657227 975.379150, 1367.344238 975.251099, 1366.664795 976.666138, 1365.350708 977.783264, 1365.117188 979.215393, 1362.446899 980.510376, 1360.310303 982.930115, 1360.102417 985.135437, 1359.329956 987.112488, 1357.903076 988.759583, 1356.334473 990.505676, 1357.108643 991.759827, 1355.197632 992.477173, 1352.883179 994.176147, 1353.170654 995.985840, 1353.254761 997.457214, 1351.359253 998.637451, 1352.134155 1000.606506, 1350.851685 1001.834167, 1350.683472 1002.746826, 1350.415161 1003.989075, 1348.736450 1005.872742, 1347.524658 1007.000610, 1345.721436 1008.058411, 1343.463623 1009.931702, 1343.775635 1011.524719, 1342.893311 1012.615479, 1342.615112 1013.879272, 1340.703247 1015.092957, 1342.211426 1015.783203, 1343.684082 1016.447449, 1345.999023 1016.858704, 1346.456665 1018.528259, 1347.131348 1020.280396, 1351.023438 1020.894714, 1347.540649 1023.049255, 1348.848511 1021.412659, 1346.837646 1021.631104, 1344.183960 1021.811584, 1340.829712 1021.796021, 1337.921387 1023.307861, 1335.854614 1024.000000, 1333.626709 1023.694153, 1331.089600 1023.724365, 1328.952515 1022.334534, 1327.135864 1023.652527, 1325.606323 1021.815125, 1323.496094 1022.917480, 1322.821777 1021.880127, 1321.400879 1022.390930, 1321.037842 1020.756226, 1319.537231 1021.463562, 1319.219727 1020.266785, 1318.839355 1019.214111, 1318.755493 1018.001587, 1316.795654 1017.584412, 1314.765503 1016.930176, 1313.156860 1016.041626, 1311.269897 1016.728516, 1310.180542 1015.067322, 1308.001709 1014.052429, 1306.063721 1012.346130, 1303.249756 1013.100098, 1300.925781 1012.223389, 1299.642578 1010.204773, 1297.383301 1009.254150, 1296.160400 1007.680176, 1294.056152 1007.631165, 1292.596558 1006.952148, 1292.325195 1005.369934, 1290.349365 1003.821899, 1286.645142 1004.078186, 1283.464722 1004.093140, 1280.767212 1003.223267, 1276.826904 1002.340881, 1273.935913 1002.686462, 1271.050537 1001.608948, 1267.649536 1000.247131, 1263.916870 998.799805, 1260.902832 997.317688, 1257.456665 997.305359, 1255.559448 998.046936, 1254.264526 997.248535, 1250.255737 997.323975, 1246.816040 997.478516, 1244.817017 996.256592, 1241.887695 994.960144, 1238.804077 992.782776, 1235.832764 989.246582, 1233.627930 985.520752, 1232.580811 981.387024, 1229.809937 979.459717, 1227.208496 978.084473, 1224.892456 975.722717, 1223.826904 974.969177, 1223.648315 973.194397, 1222.411987 972.421021, 1221.507080 970.721069, 1219.420166 966.184631, 1216.981323 963.265381, 1214.865845 960.813599, 1212.824097 958.473450, 1211.037598 955.993835, 1211.050171 952.631958, 1210.825439 949.326355, 1210.718018 946.626465, 1210.776367 943.982788, 1210.796021 941.569458, 1208.969849 941.893066, 1207.886230 942.148804, 1207.125244 941.329102, 1205.724609 941.025085, 1205.930054 939.289246, 1204.718872 938.618896, 1204.588257 937.360107, 1203.359253 937.017944, 1202.778687 935.522644, 1200.465576 933.588989, 1198.829468 931.699707, 1197.292725 930.089783, 1196.533569 928.123962, 1194.831543 926.382141, 1193.782227 924.565186, 1192.251709 922.715271, 1191.099609 920.398743, 1189.044556 918.827209, 1187.626221 917.658386, 1187.155884 915.965576, 1186.374512 913.807495, 1184.547119 912.275696, 1184.448364 909.784912, 1182.407959 907.640137, 1180.692261 905.545959, 1179.399536 903.174011, 1178.223633 900.290588, 1175.922729 896.273438, 1174.086548 891.823547, 1172.952637 887.293823, 1172.541504 883.615540, 1171.374390 881.529175, 1170.965088 878.563293, 1169.869385 875.086182, 1168.598022 874.449158, 1169.056641 872.694214, 1169.777832 869.823303, 1168.853149 867.720337, 1169.593628 864.948853, 1169.513062 861.936279, 1170.176514 858.408691, 1170.108398 856.149353, 1170.004150 854.279968, 1169.530762 851.882507, 1169.474609 848.846008, 1168.736816 846.872559, 1169.546875 844.107849, 1169.559937 842.616638, 1170.140991 840.742554, 1170.852417 838.201538, 1171.756226 835.035034, 1171.818726 831.947937, 1170.931152 831.096313, 1171.594727 828.527100, 1170.224365 828.129944, 1169.361938 827.125549, 1168.621826 826.098206, 1169.281616 824.602051, 1168.859009 821.545654, 1167.548828 818.038330, 1166.254395 817.115356, 1166.453979 816.266113, 1166.887817 814.569275, 1165.643066 811.823730, 1165.333618 809.067993, 1165.370728 806.362610, 1164.661865 804.735962, 1164.784058 802.809204, 1164.105957 797.702393, 1164.227539 793.752991, 1162.912476 789.507996, 1162.668091 785.468323, 1161.556396 783.560242, 1161.919434 780.145630, 1160.502930 775.168579, 1161.160645 770.197510, 1161.125488 766.190552, 1162.427856 762.910034, 1161.769775 761.899658, 1162.250488 760.521545, 1163.559937 759.330994, 1162.590576 755.456177, 1162.673828 752.802429, 1162.859253 749.697876, 1161.399536 747.260376, 1161.652954 744.984009, 1159.781860 739.989380, 1156.513550 733.791992, 1153.568481 728.111328, 1150.153564 723.182251Z M1009.289429 699.874512 L1008.546143 702.150818, 1008.976257 710.606567, 1010.677185 720.966614, 1011.070923 727.932861, 1011.915894 728.658813, 1012.213074 731.054077, 1012.464111 731.078369, 1012.544434 731.147583, 1012.146362 731.942505, 1013.158325 736.566895, 1014.260132 740.583252, 1015.529541 744.089111, 1016.762817 748.142517, 1016.838501 750.621826, 1017.350708 753.991943, 1017.922424 757.573730, 1018.705200 761.062317, 1019.124512 764.971741, 1018.378235 767.403259, 1018.979187 771.905884, 1019.490967 777.169250, 1020.473938 779.488525, 1019.825378 781.713867, 1020.038635 786.041382, 1020.339783 790.097290, 1020.425293 792.152771, 1020.753540 793.681396, 1020.416931 794.275879, 1021.326355 799.630188, 1022.016724 804.423340, 1022.769714 809.966003, 1023.345215 815.024841, 1024.357056 818.590393, 1025.212769 821.828308, 1026.161499 824.709351, 1026.286987 827.499512, 1026.431885 828.811096, 1026.577271 829.438965, 1026.734131 830.588501, 1025.913086 830.407349, 1025.389282 833.378967, 1024.416138 836.902832, 1022.576721 840.456665, 1022.323669 843.147949, 1021.936096 845.268005, 1020.837036 847.306641, 1019.501831 851.180786, 1018.198364 855.494507, 1017.642029 859.115845, 1018.519165 860.907104, 1017.722107 864.751282, 1017.090027 866.905640, 1015.819153 868.106567, 1015.358154 872.018005, 1015.030762 874.743774, 1013.576721 876.843628, 1011.659851 878.622009, 1009.332642 882.313477, 1007.708374 885.374634, 1006.872009 888.071411, 1005.760071 891.297974, 1003.425659 894.137695, 1001.920349 897.782959, 1000.344482 900.713074, 998.085876 903.054016, 996.231812 905.032898, 994.491028 905.990540, 992.670105 908.339539, 990.287903 910.939148, 987.808533 912.295593, 986.001526 914.177002, 985.138367 915.489746, 984.558533 916.131653, 983.372314 916.610657, 982.380981 918.090454, 980.925049 919.819641, 978.478760 920.733093, 977.487061 922.955444, 976.017334 925.137573, 974.439453 927.034363, 972.152344 927.701721, 970.339722 930.006287, 969.855286 932.102966, 968.179688 934.557129, 965.699585 936.876526, 965.051697 939.619202, 964.284851 942.446350, 962.453247 943.825256, 961.006348 946.166382, 958.596375 948.332458, 956.000610 950.231628, 954.274231 953.185608, 953.532532 955.515137, 950.992737 956.935913, 948.340637 958.313110, 945.958740 959.219666, 943.858887 958.934937, 941.030579 959.437012, 937.420654 960.360901, 937.658813 961.565125, 936.026672 962.374634, 934.760437 964.379272, 933.083008 964.122070, 930.782898 965.830933, 928.027832 967.390808, 926.991272 969.117981, 925.702759 968.843262, 924.112366 970.089722, 921.711731 970.329712, 918.473633 970.639282, 915.300232 971.702881, 914.263977 973.703796, 911.693054 974.269531, 911.119507 975.472839, 909.205383 974.851990, 907.779785 976.378418, 905.011841 976.127625, 902.051086 976.226807, 899.174744 976.163025, 897.990234 978.030762, 895.068054 978.044128, 892.188354 978.257202, 889.299683 978.718750, 886.308044 979.212036, 883.218079 979.863342, 881.536987 981.387878, 879.304504 981.885803, 876.110413 982.114319, 874.406250 983.705200, 872.195496 983.960571, 871.530823 985.724243, 870.221985 987.392395, 867.576355 987.472046, 866.457214 989.489746, 865.493286 991.439331, 863.124390 991.517944, 862.724060 993.481750, 862.066711 995.353333, 861.056213 996.507812, 859.853638 996.840271, 858.963806 998.202454, 858.083191 996.171753, 856.940796 993.595825, 855.691772 991.407837, 854.812744 990.126892, 855.875793 989.878113, 856.277466 988.259766, 857.374207 986.853943, 856.696167 985.100647, 856.265259 982.758362, 855.102600 980.311462, 854.170532 978.014038, 853.279724 975.946533, 852.325439 974.405090, 852.925598 972.368652, 851.522949 969.916809, 850.773132 968.056641, 850.160217 965.901855, 848.537048 963.409790, 846.990234 963.511108, 846.288757 961.994995, 844.818909 962.444092, 844.264038 961.432983, 842.462769 960.270203, 841.100830 957.406555, 837.744080 955.253601, 833.783813 954.275940, 831.777710 953.081055, 829.716797 951.729492, 825.011597 951.034729, 821.224365 950.896362, 816.979980 950.067810, 815.178955 950.664124, 813.003235 949.862732, 809.378235 949.840088, 805.692322 950.024109, 802.687439 950.205872, 799.221680 949.490784, 796.096741 949.923950, 794.373779 949.982422, 793.558044 948.429504, 790.861938 948.044922, 789.159973 946.109131, 786.404907 946.141907, 783.217834 945.574585, 778.891602 944.614258, 775.108337 943.720276, 771.361328 943.091614, 767.763489 942.158325, 764.296082 941.180298, 762.106262 939.662537, 758.453979 938.535461, 754.634949 937.266235, 752.060913 937.615173, 748.187866 936.691345, 744.243652 935.937805, 740.068787 935.147461, 736.808289 934.861816, 733.630005 934.874817, 730.874634 935.177979, 728.786377 935.982605, 726.824341 934.784424, 724.364563 935.798828, 722.779297 937.030090, 720.695496 936.907104, 718.663086 935.191040, 716.593201 934.873108, 715.014465 933.409851, 712.652283 932.077087, 711.139282 932.989441, 710.114746 930.965454, 707.550964 930.761475, 705.647949 929.584595, 702.697327 928.837341, 699.757446 927.847168, 695.805908 927.003784, 692.446594 927.069458, 689.363770 926.303955, 685.499146 926.433838, 681.614258 926.159302, 678.715942 925.766724, 676.801270 925.258179, 675.075867 924.659546, 673.694214 923.944946, 669.824951 922.968872, 664.229797 922.331909, 660.153137 921.781799, 657.049622 921.835510, 654.978088 922.329224, 652.412964 922.483765, 649.553711 921.908936, 645.249878 922.449036, 640.590698 923.054565, 636.369812 922.817444, 632.153687 922.758911, 627.008423 922.803772, 622.543884 922.880676, 617.475769 924.510376, 612.200195 925.919556, 608.644958 928.232849, 605.302490 930.373291, 601.910645 932.263550, 599.494568 934.086914, 596.966064 936.055908, 594.286926 937.743530, 594.605408 939.175659, 593.433350 939.475342, 592.134033 940.532043, 591.611023 941.531494, 590.304749 941.250122, 586.975708 942.265564, 585.769348 943.940735, 585.946716 944.935120, 585.175415 944.970276, 583.349182 944.885803, 581.229919 945.808655, 579.258789 946.297363, 576.003418 947.209595, 572.445190 948.237305, 568.781433 949.539185, 565.158813 950.306519, 561.414185 951.072510, 557.751038 951.739929, 554.531372 951.946716, 551.337463 951.509399, 549.879028 952.625671, 548.015503 953.340942, 548.325623 954.775085, 546.631836 954.225342, 543.898560 953.292175, 540.927734 951.925781, 537.867920 949.515381, 536.559631 950.645752, 536.052368 952.274963, 536.218079 953.708008, 535.066406 954.480225, 536.247803 956.936279, 537.651489 959.506042, 538.938904 961.027649, 539.443970 962.152954, 539.331726 963.300842, 539.322632 963.979492, 539.046570 964.516052, 538.713196 965.320496, 538.632141 966.104980, 536.802368 966.419739, 533.640686 966.801392, 534.866150 969.173950, 534.930054 970.770447, 534.303589 969.785889, 531.781372 968.273315, 530.373840 969.480103, 530.903320 971.053528, 531.652405 972.746216, 530.507507 974.118530, 529.668945 975.141052, 527.757507 974.149902, 525.073120 975.628235, 522.729553 976.857483, 521.130554 978.698181, 519.507324 979.825317, 517.082336 980.932861, 513.847290 982.197876, 512.852234 983.890381, 510.703247 983.815857, 509.617828 984.995422, 507.830566 984.698792, 506.704468 985.830322, 505.566803 986.461121, 503.072113 985.561768, 500.241089 986.359497, 498.743256 988.524414, 497.552429 986.625610, 496.213531 986.062439, 496.889923 984.413147, 495.560455 983.891602, 496.117004 982.920471, 495.953522 981.494507, 496.038605 979.597534, 495.646454 976.238159, 495.070007 974.905823, 494.445801 974.611267, 496.169525 972.536316, 495.911041 970.929321, 493.671082 970.883789, 493.991486 969.912109, 491.828339 969.800781, 490.399658 969.467590, 488.558716 969.655884, 487.001373 969.609680, 486.451874 968.689514, 485.043610 968.271362, 483.620056 967.409119, 482.777771 965.569519, 481.180878 964.238220, 480.816803 962.333130, 481.715271 960.425476, 481.743591 959.018677, 481.004089 957.373169, 478.684814 958.191895, 479.015411 956.187561, 477.117798 955.547607, 475.380707 955.038696, 474.849060 953.324768, 474.131134 951.518188, 472.559845 951.519226, 473.188995 950.074463, 472.179840 948.494812, 470.591980 946.926270, 469.913239 945.292664, 468.085693 944.566223, 466.259949 942.738647, 464.857666 940.040955, 463.508606 937.558838, 462.721802 934.337646, 460.505096 930.605835, 459.927490 926.943604, 458.016083 923.696533, 456.792908 921.563049, 457.716583 920.187805, 457.777802 917.466003, 456.396027 914.731750, 457.664825 911.919556, 458.826355 909.392822, 459.684845 907.729492, 461.074341 905.957886, 461.592163 903.695801, 462.787048 901.755066, 464.950073 900.816895, 465.266541 899.124695, 465.046387 898.627747, 465.778992 897.598206, 466.040924 896.567444, 466.795807 895.875793, 468.704010 894.171021, 469.033173 893.056030, 469.989288 892.376953, 471.789917 891.403809, 473.780151 889.498962, 475.202423 886.240967, 476.264496 883.356445, 475.939209 881.790710, 475.896881 880.463623, 476.217285 878.620178, 476.691986 877.213013, 476.718140 875.014648, 476.885498 871.080566, 476.776581 867.183533, 476.321991 863.125244, 475.294708 858.873901, 473.598816 854.846130, 471.117340 851.259094, 467.283813 849.195190, 463.266266 847.186462, 460.192108 845.645142, 456.587067 843.542725, 452.317505 841.191040, 449.304810 838.940186, 444.851318 835.783264, 440.161316 832.927979, 437.015106 830.358826, 432.441101 828.991211, 428.451904 826.661682, 424.877869 824.431152, 422.944000 824.391785, 421.527710 824.099915, 421.800995 823.178223, 419.142670 822.233154, 416.173981 821.281677, 414.554901 820.883667, 413.630798 819.553223, 409.989899 817.596558, 408.343536 817.144104, 407.223694 815.783264, 405.483704 815.473328, 404.413147 814.684204, 402.133087 812.371277, 399.664856 811.188049, 397.774719 810.571777, 395.802826 809.343506, 394.382324 809.340820, 394.329865 807.378906, 393.631653 806.278076, 392.226288 806.516724, 394.115540 804.876465, 391.832489 805.343933, 392.777222 803.471436, 390.752930 802.691650, 389.434265 801.899414, 388.079285 801.762695, 388.593353 800.864624, 389.510254 798.974548, 387.977783 795.903564, 386.572754 793.175598, 385.241547 790.435547, 384.412476 787.850037, 381.873291 785.224487, 379.307526 782.581116, 378.344330 778.617371, 376.901154 775.683899, 375.852875 773.136047, 374.826721 768.789368, 373.722931 765.166016, 372.987549 763.116028, 372.178345 761.039551, 372.522278 759.500854, 372.002777 755.524597, 370.839050 751.240845, 370.522736 746.480103, 369.537964 740.779602, 367.590790 735.105713, 365.328094 729.576660, 362.747070 723.931519, 360.485565 719.609619, 359.276093 716.433472, 357.357269 712.306274, 356.787109 708.627258, 357.383087 703.189087, 359.861542 695.464172, 361.674133 687.913513, 363.629700 684.627808, 369.033447 682.491943, 373.636566 680.167114, 379.430084 679.054443, 376.503296 683.761963, 372.401062 685.183411, 372.521332 680.672485, 370.257111 679.000732, 343.139771 684.527466, 334.273407 687.443909, 325.893921 686.775757, 322.489594 686.908875, 319.914703 684.446777, 315.705536 680.672546, 310.758972 676.429565, 306.692444 671.967590, 302.882568 669.522644, 299.476501 667.026550, 296.345551 664.148682, 291.099884 660.331055, 284.618774 657.796204, 282.078888 657.836182, 278.852936 656.750610, 277.275452 656.876465, 274.778442 656.714966, 271.613007 656.835327, 267.592194 657.054199, 265.288818 657.193481, 263.254120 656.392273, 257.628143 655.317749, 253.450333 654.913208, 250.684235 655.389893, 248.493149 654.887573, 246.376678 654.259033, 243.069275 653.248169, 239.262634 651.941772, 235.214676 650.591919, 231.089371 650.020996, 228.726105 649.646240, 227.214188 648.813354, 225.027695 647.584656, 223.829254 647.811646, 222.088425 647.219177, 221.285385 646.580811, 220.097794 645.025146, 215.035889 643.417603, 212.313385 643.175293, 210.259201 642.184570, 207.714462 641.142212, 205.300842 641.410522, 202.327148 641.188110, 197.797745 641.174072, 192.820801 641.232361, 187.420105 641.474121, 183.374390 641.297485, 179.391556 640.774292, 175.522034 641.730835, 171.982422 642.668579, 168.409958 642.750366, 165.663696 643.010376, 162.328918 641.674377, 158.319382 640.379883, 157.432755 641.670776, 155.318329 640.503784, 152.319412 640.162964, 150.199417 641.276123, 146.669876 641.336975, 142.790283 641.332275, 139.604721 641.506470, 136.987137 642.033386, 133.202972 642.764893, 129.706482 643.433289, 126.167549 643.414612, 121.413834 643.090942, 116.978973 642.331543, 114.107658 641.758484, 111.497505 641.006348, 108.335892 641.434326, 105.003563 640.268921, 104.223206 641.103516, 102.566475 641.515076, 100.727295 642.317078, 98.783394 641.953369, 95.868767 641.455811, 94.746490 643.301758, 92.345871 643.265625, 89.520119 643.338867, 87.830444 643.557251, 86.028320 642.887085, 82.991173 642.832642, 80.128761 641.350647, 77.342316 641.136108, 75.123566 641.177124, 73.370331 641.725586, 71.780380 641.959595, 70.131966 641.155762, 68.960106 641.706665, 68.013435 640.158447, 66.607597 640.862427, 64.889366 640.885071, 62.255848 640.565186, 59.773392 640.579102, 58.333336 641.852356, 57.826267 639.991333, 55.836510 638.284912, 55.159405 636.875854, 54.489536 635.896057, 54.245190 633.676025, 52.417549 632.150330, 52.181515 630.130798, 50.642605 627.689148, 49.881611 625.586548, 47.912189 623.471313, 45.908840 622.450562, 44.366413 621.219727, 44.077774 618.679321, 43.949783 616.238770, 42.890568 612.926758, 41.501846 611.358521, 42.119793 609.463867, 41.976162 605.282471, 42.106499 601.230591, 40.818386 598.307617, 40.059933 595.987671, 38.606773 593.550720, 36.734737 590.768860, 35.354912 589.902893, 35.502945 589.221680, 35.600529 587.644104, 33.064785 585.398193, 32.970722 582.474060, 31.466721 580.292969, 30.490322 577.593933, 27.905104 575.198853, 27.322941 572.900391, 28.127644 571.329285, 26.669008 569.239258, 26.013025 566.566711, 26.480984 563.662231, 24.956841 560.109985, 24.190466 556.895508, 22.965126 555.506958, 23.124502 553.986816, 21.961742 550.919739, 20.961973 547.917969, 19.891808 544.660706, 18.801401 542.876831, 19.666040 541.183350, 18.421734 539.587158, 18.814894 536.974854, 17.991222 532.458862, 16.791794 529.670044, 16.048691 526.398804, 15.673814 523.258911, 15.553549 520.485840, 16.489370 518.457275, 16.227524 516.016418, 17.214483 513.810425, 16.668009 510.687500, 18.069933 508.149109, 18.079416 504.960571, 17.310108 504.029541, 17.847490 502.111145, 18.946404 499.420715, 19.972864 497.014099, 19.365377 493.176514, 19.281288 489.586304, 18.905533 486.247559, 18.720442 483.006836, 19.313751 479.533325, 20.831148 475.687805, 22.523958 472.382568, 23.563129 466.487976, 25.188473 461.583069, 27.612555 453.952759, 29.705664 445.991943, 31.304411 438.420776, 32.443607 430.508118, 32.846447 422.353455, 33.012180 414.128174, 32.364605 407.582520, 31.463200 399.063416, 30.206182 389.853394, 28.905556 382.014526, 27.575008 376.101868, 26.355244 371.238281, 24.994778 366.348145, 24.157417 364.340820, 23.592560 362.033691, 21.130737 357.188660, 19.847807 354.775513, 18.241138 351.365845, 15.924905 348.025208, 15.853039 343.456848, 15.664037 339.344055, 15.550909 335.758423, 14.654296 332.897156, 14.895218 329.257812, 13.549809 326.382446, 13.662839 323.532593, 12.943495 320.956482, 13.407837 318.575684, 12.340115 315.809998, 11.260073 312.742615, 10.117062 309.878479, 9.125214 307.279541, 8.128575 306.788818, 7.613194 306.343445, 8.018186 305.384155, 8.244538 302.432678, 7.222478 299.397095, 6.731932 298.204468, 7.103092 297.001892, 6.685781 293.826172, 5.588628 292.286438, 6.422077 290.685791, 4.939096 290.016052, 5.365501 289.550598, 5.570050 288.172546, 5.968295 286.453308, 5.404025 283.763611, 5.632432 281.153931, 4.750974 278.029846, 3.763135 274.807312, 4.202837 272.285767, 3.116244 268.985352, 1.632090 266.020142, 0.000000 263.148071, 0.692749 261.096802, 0.696562 257.980774, 1.798506 256.114441, 3.056209 250.464417, 2.408144 249.286072, 3.078404 249.151855, 3.923978 248.034119, 4.858529 245.673157, 5.674769 242.114319, 5.826323 238.523865, 6.057370 234.246704, 5.326488 231.794312, 5.770786 229.809631, 5.824856 227.199585, 4.942616 225.429443, 5.738911 223.989746, 5.012527 222.940491, 5.335288 221.029480, 6.072818 216.947388, 4.546620 213.509583, 4.020288 211.588623, 3.694691 209.254822, 3.170999 206.748291, 3.810264 204.673157, 4.518461 202.254639, 5.003727 199.714722, 5.491437 196.729004, 4.700619 195.663452, 5.258631 194.280945, 4.122269 191.493530, 3.775357 189.045593, 3.525244 187.919922, 3.415441 187.350037, 5.032962 187.192932, 8.092887 186.999207, 11.274250 186.424316, 13.555578 185.864075, 14.254780 185.301636, 15.473079 185.680420, 18.487146 184.859375, 19.654112 184.357422, 20.983582 184.899170, 21.278086 183.391479, 23.093117 182.979858, 25.835951 182.327148, 28.765051 181.105835, 32.163574 180.013977, 35.613335 178.771118, 39.229122 177.436401, 42.682987 176.350769, 46.002022 175.684387, 46.664948 175.006714, 48.166603 174.917419, 51.021004 174.064941, 53.788280 173.300537, 56.775948 172.759521, 59.541466 172.595520, 62.412582 170.849731, 63.801701 169.037231, 65.249580 167.916504, 66.709190 166.613342, 68.208893 166.272705, 69.835114 164.399109, 71.817535 163.155273, 72.914299 161.504700, 74.586380 159.395874, 75.197586 157.329834, 77.208855 154.989258, 79.163406 152.180054, 81.362801 148.823486, 82.531822 146.153381, 83.249695 144.258362, 85.255882 143.372803, 85.551262 141.728699, 87.612495 140.718628, 89.501152 138.501465, 90.713585 136.800659, 93.016617 136.121399, 92.743629 134.569153, 94.271095 133.863586, 96.671516 132.415222, 98.238388 131.648987, 99.772408 131.230164, 102.454819 129.146851, 105.281548 127.207275, 107.844177 125.447754, 110.355377 123.378601, 112.865211 121.535339, 113.349495 119.785522, 115.174896 119.040833, 115.445053 117.346497, 116.816368 115.430664, 119.761208 113.176392, 120.641983 109.888916, 121.421364 106.625427, 121.728088 103.498657, 124.140343 101.174194, 126.336113 98.324585, 128.636993 95.756287, 129.616226 92.851807, 129.278320 91.467773, 130.848999 89.482727, 133.559082 88.208496, 137.133896 86.906921, 140.341171 84.709290, 142.738174 82.187683, 142.372879 80.560425, 143.349182 79.089050, 143.949722 77.533264, 145.424973 76.762390, 145.895966 75.012573, 146.045181 73.300171, 146.917923 71.999268, 148.742935 71.265869, 149.421600 68.837280, 150.193939 66.577515, 150.590820 64.807617, 151.612488 63.621338, 151.645538 62.498657, 153.464081 62.304871, 155.323410 64.099304, 157.113403 65.721619, 159.006271 67.449707, 160.893066 69.117188, 162.335571 70.690796, 164.520782 70.405884, 163.665237 72.382141, 165.429428 72.941223, 165.913422 74.859558, 167.052032 76.376526, 168.080643 78.336975, 169.457138 80.477600, 171.277557 82.045898, 173.398132 82.548767, 175.379288 82.810852, 177.163910 82.606506, 178.512833 82.974426, 179.706100 81.872375, 181.492004 81.693054, 183.835419 79.580566, 186.179901 80.814148, 188.884125 80.835083, 191.099548 81.596924, 193.132812 83.146240, 195.018250 81.463867, 196.126251 83.110535, 197.839005 81.890259, 198.730240 81.264038, 199.188416 83.299011, 201.070618 82.100708, 201.999802 81.464661, 202.324707 83.554504, 205.591827 82.411987, 207.250504 81.968567, 208.051300 81.763062, 209.583664 81.472839, 212.398743 80.768188, 214.245560 82.524963, 217.110413 81.716919, 219.733765 81.181580, 221.461487 80.983582, 222.573593 81.686890, 224.109863 81.008301, 225.942993 81.371582, 228.439026 82.280579, 231.387100 81.172119, 234.201111 80.498901, 235.411194 80.057251, 236.338028 81.264893, 238.014114 82.661621, 240.129913 83.596375, 243.035339 84.908142, 245.637192 86.695129, 248.548981 87.384033, 251.476028 88.968506, 253.496490 88.800232, 254.392899 90.768494, 257.110321 91.948486, 259.385193 93.745300, 261.770752 95.389832, 264.730743 95.754944, 267.508789 96.697876, 269.624237 96.933533, 271.571198 98.645508, 274.199677 100.180786, 277.630096 102.408997, 281.172852 104.450806, 284.822357 106.229431, 288.042389 108.661072, 290.915863 110.008240, 295.513123 111.067078, 300.428253 112.729736, 306.461426 114.851624, 312.719086 117.588867, 318.636932 119.601624, 323.332001 121.136292, 330.177734 122.752625, 336.657776 122.984558, 341.867523 123.246887, 349.097626 121.792114, 356.686676 120.289734, 362.778381 119.236206, 367.500153 117.864014, 372.820007 116.274719, 377.222137 116.010559, 382.302917 115.098877, 386.421417 114.576355, 389.770630 113.699890, 391.279907 112.765930, 393.110199 114.078857, 393.164215 112.256592, 394.295349 112.581543, 396.763184 112.102051, 399.137451 111.662109, 401.037140 110.894470, 402.957733 111.262329, 405.024292 109.776672, 407.269684 108.047607, 409.580688 105.916077, 410.406433 103.764587, 412.746704 102.823425, 415.630646 101.927368, 417.955505 100.596436, 420.230438 99.130188, 419.673462 97.189697, 419.698883 95.946838, 420.949585 95.948914, 420.771301 93.953491, 422.051971 93.300415, 423.933929 92.198608, 425.900177 91.433777, 427.804626 89.850769, 429.188507 87.068848, 429.764709 85.033569, 431.139099 83.832581, 432.979523 83.541138, 433.443085 82.241760, 434.281311 82.203430, 435.352539 82.617798, 437.491852 81.294312, 439.280090 78.966675, 440.267395 78.035706, 440.750458 77.553284, 441.470490 78.910706, 444.014099 77.885803, 446.383667 76.538452, 449.237000 75.150513, 450.088745 73.303040, 450.387543 72.360840, 451.929047 73.942261, 452.610748 71.950867, 452.906433 70.950439, 454.655548 72.383362, 455.132355 70.250061, 455.371185 69.217346, 457.253326 70.529358, 457.512543 68.092468, 459.698486 68.554504, 462.255493 67.111389, 464.169952 65.040100, 465.765717 63.522217, 465.492889 60.949524, 464.699371 57.847168, 465.577515 55.515930, 466.422394 53.913513, 466.380463 52.305237, 467.559875 50.867371, 469.046722 49.119812, 470.659760 47.580078, 471.831665 46.865662, 473.274139 46.699402, 473.966461 44.740662, 474.841064 42.868408, 476.016113 41.568176, 477.448212 39.857483, 478.173645 37.815735, 479.393768 36.372437, 480.242767 34.106140, 481.203125 31.735596, 482.183044 29.535583, 483.104248 27.581726, 484.065430 25.797607, 485.634125 27.936340, 487.304230 30.012573, 488.578186 31.978821, 490.934875 33.534241, 493.079376 36.201050, 496.116760 36.238770, 499.120026 36.317505, 501.960205 36.439026, 504.515594 36.442139, 506.215790 38.025146, 508.134521 39.570251, 510.050598 41.254456, 511.924927 43.077209, 513.660767 45.087952, 516.521851 44.921326, 519.742310 45.185181, 522.450500 45.462769, 525.693359 45.258850, 527.174316 44.055542, 528.437012 44.882141, 529.427795 46.662781, 531.215576 46.992493, 533.477783 47.005249, 534.129028 45.693970, 534.700500 45.064026, 535.174377 44.609070, 535.483887 44.483032, 535.436279 45.099487, 536.174744 46.439636, 537.489014 48.639404, 539.074524 47.497498, 540.556580 46.692566, 542.693054 46.744873, 545.140503 45.482910, 547.073547 46.491089, 549.196350 44.906616, 551.855225 43.487183, 554.418091 42.173828, 554.303040 44.812500, 553.877197 47.487488, 556.021790 48.939087, 555.630737 51.555725, 555.093201 54.102966, 556.965210 55.029724, 558.430115 54.531738, 558.863525 55.883667, 559.187927 58.032166, 561.061646 58.865906, 561.831482 59.986816, 562.840210 60.864075, 564.810364 61.791748, 566.098694 63.305176, 566.657654 64.890015, 566.489563 66.618225, 567.173218 68.846863, 567.313171 70.996094, 567.069397 73.770813, 569.788940 74.757141, 571.382019 76.225281, 572.042908 78.157471, 574.281616 80.086853, 575.405762 81.393982, 576.463257 82.880188, 577.563477 84.327148, 578.269043 85.793030, 579.173157 88.158630, 581.313721 89.289551, 582.886230 91.218750, 584.862793 93.686157, 586.638000 96.600464, 588.723877 99.186279, 589.851685 101.798096, 590.862732 103.703003, 590.513672 105.788757, 591.661255 107.819580, 593.040955 109.752258, 593.191467 112.084045, 593.987976 114.202637, 594.822510 115.802002, 595.065979 117.962158, 594.571594 120.927185, 595.164856 122.559082, 594.943176 123.949829, 596.618958 124.568054, 596.943726 126.173279, 598.893005 128.044128, 598.996887 130.167480, 601.256104 131.528198, 601.557007 133.978027, 603.963501 135.117310, 604.428772 137.959290, 607.050415 138.806030, 608.149719 142.039246, 610.444214 141.490967, 611.673401 142.449219, 611.925232 144.172485, 612.503601 147.013245, 614.599060 147.786255, 614.352295 149.255066, 614.425110 151.606201, 614.611938 154.013672, 614.953430 156.298706, 615.530029 158.435486, 616.512085 160.763855, 617.548706 163.144165, 618.710815 165.631775, 618.038330 167.584656, 619.262451 170.262512, 620.639221 173.148010, 622.201294 176.192932, 624.137634 179.462402, 625.996948 182.737061, 627.820679 186.018127, 629.374023 189.106140, 630.681885 192.504272, 632.315125 196.215393, 634.103455 200.407349, 636.843262 204.813904, 640.157227 209.840393, 641.110291 211.091919, 640.846252 212.307495, 646.148621 217.976562, 649.996399 221.995972, 655.786255 226.614746, 661.379395 229.108582, 666.636902 230.946289, 674.196655 231.455811, 679.780762 230.911316, 684.357727 229.427917, 689.762207 227.429810, 694.289185 225.533630, 698.516846 223.645020, 702.582275 222.215881, 706.623108 220.422546, 709.873840 218.977539, 712.883423 217.649170, 714.692444 216.737854, 716.508850 217.270264, 720.309692 216.493530, 723.930359 215.430237, 727.477722 214.475403, 730.410706 213.220947, 733.562683 213.066406, 737.148560 212.777588, 740.509399 212.398010, 743.676758 212.084839, 747.099304 211.728027, 749.987854 210.140625, 753.684265 210.323914, 755.965881 209.288391, 757.923035 208.612305, 759.796387 208.087524, 762.402222 207.706543, 764.734253 206.526733, 767.134338 205.920288, 769.169617 204.835754, 771.285278 204.464783, 773.333191 203.428650, 775.447876 203.128174, 777.818481 201.471558, 779.302490 202.304993, 781.343811 201.861816, 783.346741 202.801147, 785.935852 202.657776, 787.878662 202.171448, 790.241272 202.707092, 792.624695 202.909363, 794.713501 202.586243, 797.235901 201.362183, 799.501709 201.019653, 802.240601 200.693237, 805.315125 200.378540, 807.656128 200.121399, 808.851257 199.198059, 810.229248 199.242249, 811.461243 198.415955, 813.266418 198.215820, 815.054443 197.933533, 816.142639 196.994446, 816.751343 198.474976, 819.294739 197.660706, 820.852539 198.817688, 823.450867 198.189819, 826.158691 197.795959, 827.850037 197.403870, 827.968933 199.055969, 830.069763 198.560242, 832.394287 198.351929, 833.767944 197.091187, 834.891724 198.082153, 836.672058 199.298462, 839.294189 199.660156, 840.403503 198.207764, 841.326294 198.654053, 843.402710 198.479919, 845.312561 198.518494, 846.933899 199.460388, 848.697815 199.428894, 850.580322 199.717773, 853.596191 199.700562, 855.619812 200.929810, 857.320068 201.083679, 858.928162 201.358032, 859.634216 203.036682, 861.819336 203.330872, 864.264648 203.867310, 866.610413 204.074951, 867.296631 205.998413, 868.320129 207.227173, 868.444885 208.956787, 869.423340 211.120789, 870.881958 213.894531, 872.379517 215.326050, 871.866394 216.333801, 873.132629 217.704590, 873.778503 219.075134, 873.899353 220.730286, 875.760681 222.076050, 876.754944 223.549561, 878.871338 224.922852, 879.819580 227.565674, 881.637634 228.573364, 882.718079 230.828674, 885.190857 232.660400, 887.621582 234.120789, 888.015625 237.524597, 889.062805 238.235352, 888.949280 239.214294, 888.402100 240.644104, 889.604858 241.353943, 889.506531 242.301758, 888.873413 243.748169, 891.159119 245.738953, 893.252502 247.893555, 896.682434 250.877502, 899.096863 253.382019, 900.872375 254.949585, 902.461853 257.325806, 904.232666 258.890991, 906.096558 261.622253, 908.388000 264.087891, 910.633911 266.248108, 912.087952 268.945007, 913.955200 272.086426, 916.458679 274.809875, 918.887756 277.226257, 919.834412 279.820312, 921.065613 282.541077, 922.510559 284.987000, 924.129578 287.804688, 927.168762 289.946228, 928.635193 289.903076, 930.668274 290.873962, 932.778809 292.791687, 934.298645 294.822144, 935.585876 297.626892, 936.954346 301.218567, 939.232971 304.258850, 941.793335 305.913025, 943.655457 308.143677, 946.086304 310.603455, 947.208984 310.969360, 948.418457 312.447571, 950.277832 314.684448, 953.805603 317.703186, 955.606140 318.597656, 956.843689 320.543701, 959.667603 323.053894, 961.811768 325.557739, 964.742004 328.150940, 967.694885 330.899109, 970.896484 333.712524, 975.271118 337.016479, 978.942261 339.635986, 981.431152 340.623840, 983.191223 342.951355, 985.143372 345.245239, 985.886230 347.470764, 986.551331 349.668274, 987.959106 353.248596, 989.100586 356.607178, 990.349976 357.978760, 991.030701 359.414734, 992.065552 361.894958, 993.624207 364.518250, 995.388306 365.847168, 997.212036 366.886902, 998.509521 368.874451, 1000.498596 369.606506, 1001.972107 372.433777, 1002.997009 375.081421, 1005.464783 376.012756, 1006.950989 378.782837, 1008.540649 381.624817, 1009.973083 384.695679, 1011.356201 387.790283, 1013.034668 391.377869, 1014.873840 394.835693, 1015.812134 394.380127, 1016.723999 394.664795, 1016.700134 395.924438, 1018.088135 398.466797, 1018.983215 400.467102, 1020.566040 402.364868, 1021.884827 403.753540, 1022.940796 405.328918, 1024.965576 407.227478, 1027.283691 409.395935, 1028.733765 412.705383, 1031.776855 414.937683, 1034.140137 416.662109, 1035.771729 419.020813, 1039.328857 421.857239, 1042.240356 424.190125, 1044.505737 424.581665, 1046.362915 425.434265, 1048.082642 426.520508, 1049.909546 427.522034, 1050.709473 429.638062, 1052.138550 432.519470, 1054.511597 435.607849, 1057.114258 439.373474, 1059.731445 443.274658, 1061.195312 445.764526, 1061.344360 447.926636, 1061.486694 450.435791, 1061.449585 454.333496, 1061.374634 458.564636, 1062.574585 461.494629, 1063.238403 462.674805, 1062.938965 464.068542, 1062.361084 467.037109, 1063.413696 469.766663, 1064.227539 472.366699, 1062.849365 474.787415, 1063.968140 476.139160, 1063.203369 477.936401, 1062.607056 480.704407, 1063.953857 484.210083, 1064.073853 487.471741, 1063.569580 490.538086, 1064.056763 493.820007, 1065.051880 495.178101, 1065.482178 497.194458, 1065.535522 499.347534, 1066.496094 501.559204, 1067.305176 504.288635, 1066.478027 506.032654, 1068.148560 507.366028, 1068.405029 510.217285, 1069.088867 514.673645, 1071.460693 518.220581, 1072.874390 520.485352, 1073.548462 521.224365, 1074.218506 522.526489, 1073.703735 524.678650, 1074.524780 527.241577, 1075.265625 529.842590, 1075.879272 532.711426, 1075.250000 535.123779, 1075.984985 538.419556, 1074.817627 540.901001, 1074.749756 543.868042, 1074.093506 546.625854, 1073.629272 550.523071, 1074.301636 552.352844, 1073.439941 554.389587, 1071.918091 556.672852, 1072.171387 559.252075, 1072.574463 560.927490, 1071.135010 562.308594, 1072.308594 563.632690, 1070.943237 564.543518, 1068.785767 566.285034, 1069.496338 568.011414, 1068.465454 568.973083, 1067.549316 570.684570, 1066.609741 572.928101, 1064.746948 576.474487, 1063.003052 579.676392, 1061.017212 582.660767, 1059.285156 585.435303, 1058.368164 588.470459, 1058.854370 589.075256, 1058.462402 590.042480, 1058.264160 591.134277, 1057.698608 591.401245, 1057.127075 594.026794, 1056.608154 597.045349, 1056.559570 599.887146, 1057.283691 604.404724, 1057.538452 607.532227, 1058.041260 608.693848, 1057.322144 610.025391, 1056.651611 613.229614, 1057.350952 617.543945, 1058.551270 621.156128, 1058.856323 622.890747, 1057.941040 622.839966, 1056.654297 624.544434, 1055.429565 628.282593, 1053.277100 631.735962, 1050.625610 634.629700, 1047.318237 637.065796, 1043.217529 641.258545, 1040.863037 645.395935, 1038.259888 649.424927, 1035.481201 653.643738, 1032.814941 656.910950, 1030.529419 660.177612, 1027.770264 663.221863, 1026.541992 666.529724, 1025.988892 668.094849, 1024.436646 669.906799, 1021.604431 673.099487, 1019.022400 677.453979, 1016.302185 682.523804, 1013.818176 687.634155, 1012.401062 690.585083, 1010.240601 695.667786, 1009.289429 699.874512Z "/>
    </clipPath>
    <filter id="dropshadow">
      <feGaussianBlur in="SourceAlpha" stdDeviation="2"/>
      <feMerge>
        <feMergeNode/>
        <feMergeNode in="SourceGraphic"/>
      </feMerge>
    </filter>
  </defs>
  <g inkscape:label="rois" inkscape:groupmode="layer" id="rois" transform="translate(0,0)" style="display:inline;" class="display_layer">
    <g inkscape:label="shapes" inkscape:groupmode="layer" id="rois_shapes" transform="translate(0,0)" style="display:inline;" clip-path="url(#edgeclip)"/>
    <g inkscape:label="labels" inkscape:groupmode="layer" id="rois_labels" transform="translate(0,0)" style="display:inline;">
    </g>
  </g>
  <svg:g id="sulci" style="display:inline;" inkscape:label="sulci" inkscape:groupmode="layer" class="display_layer">
    <svg:g id="sulci_shapes" style="display:inline;" inkscape:label="shapes" inkscape:groupmode="layer" clip-path="url(#edgeclip)"/>
    <svg:g id="sulci_labels" style="display:inline;" inkscape:label="labels" inkscape:groupmode="layer"/>
  </svg:g>
  <svg:g id="cutouts" style="display:inline;" inkscape:label="cutouts" inkscape:groupmode="layer" class="display_layer">
    <svg:g id="cutouts_shapes" style="display:inline;" inkscape:label="shapes" inkscape:groupmode="layer" clip-path="url(#edgeclip)"/>
    <svg:g id="cutouts_labels" style="display:inline;" inkscape:label="labels" inkscape:groupmode="layer"/>
  </svg:g>
  <svg:g id="display" style="display:inline;" inkscape:label="display" inkscape:groupmode="layer" class="display_layer">
    <svg:g id="display_shapes" style="display:inline;" inkscape:label="shapes" inkscape:groupmode="layer" clip-path="url(#edgeclip)"/>
    <svg:g id="display_labels" style="display:inline;" inkscape:label="labels" inkscape:groupmode="layer"/>
  </svg:g>
</svg>
